{
	"asset":{
		"generator":"Khronos glTF Blender I/O v3.6.6",
		"version":"2.0"
	},
	"scene":0,
	"scenes":[
		{
			"extras":{
				"main_scene":{},
				"library_scene":{}
			},
			"name":"Library",
			"nodes":[
				1,
				2
			]
		}
	],
	"nodes":[
		{
			"extras":{
				"Visibility":"Hidden"
			},
			"mesh":0,
			"name":"Sphere"
		},
		{
			"children":[
				0
			],
			"mesh":1,
			"name":"Apple"
		},
		{
			"extras":{
				"FoodStats":"(hydration: 7, glucose:8, fat: 5, health: 0)",
				"RigidBody":"Dynamic",
				"Collider":"Ball(0.047)",
				"Food":"",
				"FoodProperties":"(health: 3, total_health: 3, time_per_bite: 0.7)"
			},
			"name":"Apple_components"
		}
	],
	"materials":[
		{
			"doubleSided":true,
			"name":"DarkRed",
			"pbrMetallicRoughness":{
				"baseColorFactor":[
					0.13285866379737854,
					0.027866613119840622,
					0.018825862556695938,
					1
				],
				"metallicFactor":0,
				"roughnessFactor":0.5
			}
		},
		{
			"doubleSided":true,
			"name":"DarkBrown",
			"pbrMetallicRoughness":{
				"baseColorFactor":[
					0.1574276238679886,
					0.07110017538070679,
					0.04681858792901039,
					1
				],
				"metallicFactor":0,
				"roughnessFactor":0.5
			}
		},
		{
			"doubleSided":true,
			"name":"DarkGreen",
			"pbrMetallicRoughness":{
				"baseColorFactor":[
					0.030614575371146202,
					0.060716111212968826,
					0.0277488362044096,
					1
				],
				"metallicFactor":0,
				"roughnessFactor":0.5
			}
		}
	],
	"meshes":[
		{
			"name":"Sphere",
			"primitives":[
				{
					"attributes":{
						"POSITION":0,
						"TEXCOORD_0":1,
						"NORMAL":2
					},
					"indices":3
				}
			]
		},
		{
			"name":"Cube.036",
			"primitives":[
				{
					"attributes":{
						"POSITION":4,
						"TEXCOORD_0":5,
						"NORMAL":6
					},
					"indices":7,
					"material":0
				},
				{
					"attributes":{
						"POSITION":8,
						"TEXCOORD_0":9,
						"NORMAL":10
					},
					"indices":11,
					"material":1
				},
				{
					"attributes":{
						"POSITION":12,
						"TEXCOORD_0":13,
						"NORMAL":14
					},
					"indices":15,
					"material":2
				}
			]
		}
	],
	"accessors":[
		{
			"bufferView":0,
			"componentType":5126,
			"count":1984,
			"max":[
				0.04723607003688812,
				0.04723618924617767,
				0.047236159443855286
			],
			"min":[
				-0.047236040234565735,
				-0.04723618924617767,
				-0.04723618924617767
			],
			"type":"VEC3"
		},
		{
			"bufferView":1,
			"componentType":5126,
			"count":1984,
			"type":"VEC2"
		},
		{
			"bufferView":2,
			"componentType":5126,
			"count":1984,
			"type":"VEC3"
		},
		{
			"bufferView":3,
			"componentType":5123,
			"count":2880,
			"type":"SCALAR"
		},
		{
			"bufferView":4,
			"componentType":5126,
			"count":592,
			"max":[
				0.04268337041139603,
				0.0257863849401474,
				0.04248105734586716
			],
			"min":[
				-0.04267716407775879,
				-0.0419326052069664,
				-0.04248104989528656
			],
			"type":"VEC3"
		},
		{
			"bufferView":5,
			"componentType":5126,
			"count":592,
			"type":"VEC2"
		},
		{
			"bufferView":6,
			"componentType":5126,
			"count":592,
			"type":"VEC3"
		},
		{
			"bufferView":7,
			"componentType":5123,
			"count":768,
			"type":"SCALAR"
		},
		{
			"bufferView":8,
			"componentType":5126,
			"count":244,
			"max":[
				0.009199676103889942,
				0.0486123226583004,
				0.0031682406552135944
			],
			"min":[
				-0.0033187400549650192,
				0.01931917294859886,
				-0.003561293939128518
			],
			"type":"VEC3"
		},
		{
			"bufferView":9,
			"componentType":5126,
			"count":244,
			"type":"VEC2"
		},
		{
			"bufferView":10,
			"componentType":5126,
			"count":244,
			"type":"VEC3"
		},
		{
			"bufferView":11,
			"componentType":5123,
			"count":312,
			"type":"SCALAR"
		},
		{
			"bufferView":12,
			"componentType":5126,
			"count":128,
			"max":[
				0.0012283431133255363,
				0.048670992255210876,
				0.0002647936053108424
			],
			"min":[
				-0.032287225127220154,
				0.029768219217658043,
				-0.0008100841660052538
			],
			"type":"VEC3"
		},
		{
			"bufferView":13,
			"componentType":5126,
			"count":128,
			"type":"VEC2"
		},
		{
			"bufferView":14,
			"componentType":5126,
			"count":128,
			"type":"VEC3"
		},
		{
			"bufferView":15,
			"componentType":5123,
			"count":240,
			"type":"SCALAR"
		}
	],
	"bufferViews":[
		{
			"buffer":0,
			"byteLength":23808,
			"byteOffset":0,
			"target":34962
		},
		{
			"buffer":0,
			"byteLength":15872,
			"byteOffset":23808,
			"target":34962
		},
		{
			"buffer":0,
			"byteLength":23808,
			"byteOffset":39680,
			"target":34962
		},
		{
			"buffer":0,
			"byteLength":5760,
			"byteOffset":63488,
			"target":34963
		},
		{
			"buffer":0,
			"byteLength":7104,
			"byteOffset":69248,
			"target":34962
		},
		{
			"buffer":0,
			"byteLength":4736,
			"byteOffset":76352,
			"target":34962
		},
		{
			"buffer":0,
			"byteLength":7104,
			"byteOffset":81088,
			"target":34962
		},
		{
			"buffer":0,
			"byteLength":1536,
			"byteOffset":88192,
			"target":34963
		},
		{
			"buffer":0,
			"byteLength":2928,
			"byteOffset":89728,
			"target":34962
		},
		{
			"buffer":0,
			"byteLength":1952,
			"byteOffset":92656,
			"target":34962
		},
		{
			"buffer":0,
			"byteLength":2928,
			"byteOffset":94608,
			"target":34962
		},
		{
			"buffer":0,
			"byteLength":624,
			"byteOffset":97536,
			"target":34963
		},
		{
			"buffer":0,
			"byteLength":1536,
			"byteOffset":98160,
			"target":34962
		},
		{
			"buffer":0,
			"byteLength":1024,
			"byteOffset":99696,
			"target":34962
		},
		{
			"buffer":0,
			"byteLength":1536,
			"byteOffset":100720,
			"target":34962
		},
		{
			"buffer":0,
			"byteLength":480,
			"byteOffset":102256,
			"target":34963
		}
	],
	"buffers":[
		{
			"byteLength":102736,
			"uri":"data:application/octet-stream;base64,"
		}
	]
}
