{
	"asset":{
		"generator":"Khronos glTF Blender I/O v3.6.6",
		"version":"2.0"
	},
	"scene":0,
	"scenes":[
		{
			"extras":{
				"main_scene":{},
				"library_scene":{}
			},
			"name":"Library",
			"nodes":[
				0,
				1,
				2
			]
		}
	],
	"nodes":[
		{
			"mesh":0,
			"name":"Avocado"
		},
		{
			"extras":{
				"FoodStats":"(hydration: 5, glucose:5, fat: 17, health: 0)",
				"RigidBody":"Dynamic",
				"Food":"",
				"FoodProperties":"(health: 2, total_health: 2, time_per_bite: 0.3)"
			},
			"name":"Avocado_components"
		},
		{
			"extras":{
				"Visibility":"Hidden",
				"prop":1.0,
				"Collider":"Mesh"
			},
			"mesh":1,
			"name":"Cube.033"
		}
	],
	"materials":[
		{
			"doubleSided":true,
			"name":"DarkGrey",
			"pbrMetallicRoughness":{
				"baseColorFactor":[
					0.03310031071305275,
					0.03310031071305275,
					0.03310031071305275,
					1
				],
				"metallicFactor":0,
				"roughnessFactor":0.5
			}
		},
		{
			"doubleSided":true,
			"name":"PaleGreen",
			"pbrMetallicRoughness":{
				"baseColorFactor":[
					0.23109957575798035,
					0.3564002215862274,
					0.14787548780441284,
					1
				],
				"metallicFactor":0,
				"roughnessFactor":0.5
			}
		},
		{
			"doubleSided":true,
			"name":"LightBrown",
			"pbrMetallicRoughness":{
				"baseColorFactor":[
					0.29568490386009216,
					0.22582776844501495,
					0.177988201379776,
					1
				],
				"metallicFactor":0,
				"roughnessFactor":0.5
			}
		}
	],
	"meshes":[
		{
			"name":"Mesh_0",
			"primitives":[
				{
					"attributes":{
						"POSITION":0,
						"NORMAL":1
					},
					"indices":2,
					"material":0
				},
				{
					"attributes":{
						"POSITION":3,
						"NORMAL":4
					},
					"indices":5,
					"material":1
				},
				{
					"attributes":{
						"POSITION":6,
						"NORMAL":7
					},
					"indices":8,
					"material":2
				}
			]
		},
		{
			"name":"Cube.058",
			"primitives":[
				{
					"attributes":{
						"POSITION":9,
						"TEXCOORD_0":10,
						"NORMAL":11
					},
					"indices":12
				}
			]
		}
	],
	"accessors":[
		{
			"bufferView":0,
			"componentType":5126,
			"count":456,
			"max":[
				0.034497104585170746,
				0.05052083358168602,
				0.008926763199269772
			],
			"min":[
				-0.034497104585170746,
				-0.04969017580151558,
				-0.024815388023853302
			],
			"type":"VEC3"
		},
		{
			"bufferView":1,
			"componentType":5126,
			"count":456,
			"type":"VEC3"
		},
		{
			"bufferView":2,
			"componentType":5123,
			"count":456,
			"type":"SCALAR"
		},
		{
			"bufferView":3,
			"componentType":5126,
			"count":72,
			"max":[
				0.029260721057653427,
				0.04431894049048424,
				0.010160737670958042
			],
			"min":[
				-0.029260721057653427,
				-0.04467184096574783,
				0.007966997101902962
			],
			"type":"VEC3"
		},
		{
			"bufferView":4,
			"componentType":5126,
			"count":72,
			"type":"VEC3"
		},
		{
			"bufferView":5,
			"componentType":5123,
			"count":72,
			"type":"SCALAR"
		},
		{
			"bufferView":6,
			"componentType":5126,
			"count":224,
			"max":[
				0.016797905787825584,
				0.010536414571106434,
				0.024630535393953323
			],
			"min":[
				-0.016797905787825584,
				-0.03108747862279415,
				-0.007411527447402477
			],
			"type":"VEC3"
		},
		{
			"bufferView":7,
			"componentType":5126,
			"count":224,
			"type":"VEC3"
		},
		{
			"bufferView":8,
			"componentType":5123,
			"count":240,
			"type":"SCALAR"
		},
		{
			"bufferView":9,
			"componentType":5126,
			"count":24,
			"max":[
				0.03499441221356392,
				0.05166085436940193,
				0.02576920948922634
			],
			"min":[
				-0.03499441221356392,
				-0.05141955986618996,
				-0.02576920948922634
			],
			"type":"VEC3"
		},
		{
			"bufferView":10,
			"componentType":5126,
			"count":24,
			"type":"VEC2"
		},
		{
			"bufferView":11,
			"componentType":5126,
			"count":24,
			"type":"VEC3"
		},
		{
			"bufferView":12,
			"componentType":5123,
			"count":36,
			"type":"SCALAR"
		}
	],
	"bufferViews":[
		{
			"buffer":0,
			"byteLength":5472,
			"byteOffset":0,
			"target":34962
		},
		{
			"buffer":0,
			"byteLength":5472,
			"byteOffset":5472,
			"target":34962
		},
		{
			"buffer":0,
			"byteLength":912,
			"byteOffset":10944,
			"target":34963
		},
		{
			"buffer":0,
			"byteLength":864,
			"byteOffset":11856,
			"target":34962
		},
		{
			"buffer":0,
			"byteLength":864,
			"byteOffset":12720,
			"target":34962
		},
		{
			"buffer":0,
			"byteLength":144,
			"byteOffset":13584,
			"target":34963
		},
		{
			"buffer":0,
			"byteLength":2688,
			"byteOffset":13728,
			"target":34962
		},
		{
			"buffer":0,
			"byteLength":2688,
			"byteOffset":16416,
			"target":34962
		},
		{
			"buffer":0,
			"byteLength":480,
			"byteOffset":19104,
			"target":34963
		},
		{
			"buffer":0,
			"byteLength":288,
			"byteOffset":19584,
			"target":34962
		},
		{
			"buffer":0,
			"byteLength":192,
			"byteOffset":19872,
			"target":34962
		},
		{
			"buffer":0,
			"byteLength":288,
			"byteOffset":20064,
			"target":34962
		},
		{
			"buffer":0,
			"byteLength":72,
			"byteOffset":20352,
			"target":34963
		}
	],
	"buffers":[
		{
			"byteLength":20424,
			"uri":"data:application/octet-stream;base64,"
		}
	]
}
