{
	"asset":{
		"generator":"Khronos glTF Blender I/O v3.6.6",
		"version":"2.0"
	},
	"scene":0,
	"scenes":[
		{
			"extras":{
				"main_scene":{},
				"library_scene":{}
			},
			"name":"Library",
			"nodes":[
				0,
				1
			]
		}
	],
	"nodes":[
		{
			"mesh":0,
			"name":"Banana"
		},
		{
			"extras":{
				"FoodStats":"(hydration: 14, glucose:17, fat:8, health: 0)",
				"RigidBody":"Dynamic",
				"Collider":"Mesh",
				"Food":"",
				"FoodProperties":"(health: 7, total_health: 7, time_per_bite: 0.2)"
			},
			"name":"Banana_components"
		}
	],
	"materials":[
		{
			"doubleSided":true,
			"name":"Yellow",
			"pbrMetallicRoughness":{
				"baseColorFactor":[
					0.5277149677276611,
					0.3498196303844452,
					0.0725221335887909,
					1
				],
				"metallicFactor":0,
				"roughnessFactor":0.5
			}
		}
	],
	"meshes":[
		{
			"name":"Cube.054",
			"primitives":[
				{
					"attributes":{
						"POSITION":0,
						"NORMAL":1
					},
					"indices":2,
					"material":0
				}
			]
		}
	],
	"accessors":[
		{
			"bufferView":0,
			"componentType":5126,
			"count":1044,
			"max":[
				0.06018814444541931,
				0.11735119670629501,
				0.015026111155748367
			],
			"min":[
				-0.044528938829898834,
				-0.08260076493024826,
				-0.02495257370173931
			],
			"type":"VEC3"
		},
		{
			"bufferView":1,
			"componentType":5126,
			"count":1044,
			"type":"VEC3"
		},
		{
			"bufferView":2,
			"componentType":5123,
			"count":1044,
			"type":"SCALAR"
		}
	],
	"bufferViews":[
		{
			"buffer":0,
			"byteLength":12528,
			"byteOffset":0,
			"target":34962
		},
		{
			"buffer":0,
			"byteLength":12528,
			"byteOffset":12528,
			"target":34962
		},
		{
			"buffer":0,
			"byteLength":2088,
			"byteOffset":25056,
			"target":34963
		}
	],
	"buffers":[
		{
			"byteLength":27144,
			"uri":"data:application/octet-stream;base64,"
		}
	]
}
