{
	"asset":{
		"generator":"Khronos glTF Blender I/O v3.6.6",
		"version":"2.0"
	},
	"scene":0,
	"scenes":[
		{
			"extras":{
				"main_scene":{},
				"library_scene":{}
			},
			"name":"Library",
			"nodes":[
				0,
				1,
				2
			]
		}
	],
	"nodes":[
		{
			"extras":{
				"Collider":"Ball(0.0015)"
			},
			"mesh":0,
			"name":"Plane",
			"scale":[
				0.012089828960597515,
				0.025997355580329895,
				0.012089828960597515
			],
			"translation":[
				0,
				-0.0014008404687047005,
				0
			]
		},
		{
			"extras":{
				"Collider":"Ball(0.0075)",
				"FoodStats":"(calories: 5, health: 0)",
				"RigidBody":"Dynamic",
				"Food":"",
				"FoodProperties":"(bites: 2, total_bites: 2, time_per_bite: 1)",
				"RandomModel":""
			},
			"name":"crumb_components"
		},
		{
			"extras":{
				"Collider":"Ball(0.0015)"
			},
			"mesh":1,
			"name":"Plane.001",
			"scale":[
				0.012089828960597515,
				0.025997355580329895,
				0.012089828960597515
			],
			"translation":[
				0,
				-0.0014008404687047005,
				0
			]
		}
	],
	"materials":[
		{
			"doubleSided":true,
			"name":"Breadcrust",
			"pbrMetallicRoughness":{
				"baseColorFactor":[
					0.7681514024734497,
					0.3378054201602936,
					0.04718222841620445,
					1
				],
				"metallicFactor":0,
				"roughnessFactor":0.5
			}
		},
		{
			"doubleSided":true,
			"name":"Breadcrumb",
			"pbrMetallicRoughness":{
				"baseColorFactor":[
					0.8387984037399292,
					0.7194689512252808,
					0.38907891511917114,
					1
				],
				"metallicFactor":0,
				"roughnessFactor":0.5
			}
		}
	],
	"meshes":[
		{
			"name":"Plane.001",
			"primitives":[
				{
					"attributes":{
						"POSITION":0,
						"TEXCOORD_0":1,
						"NORMAL":2
					},
					"indices":3,
					"material":0
				},
				{
					"attributes":{
						"POSITION":4,
						"TEXCOORD_0":5,
						"NORMAL":6
					},
					"indices":7,
					"material":1
				}
			]
		},
		{
			"name":"Plane.008",
			"primitives":[
				{
					"attributes":{
						"POSITION":8,
						"TEXCOORD_0":9,
						"NORMAL":10
					},
					"indices":11,
					"material":0
				},
				{
					"attributes":{
						"POSITION":12,
						"TEXCOORD_0":13,
						"NORMAL":14
					},
					"indices":15,
					"material":1
				}
			]
		}
	],
	"accessors":[
		{
			"bufferView":0,
			"componentType":5126,
			"count":48,
			"max":[
				0.6302821636199951,
				0.1077471673488617,
				0.5253379344940186
			],
			"min":[
				-0.60779869556427,
				-0.1076580286026001,
				-0.4796702265739441
			],
			"type":"VEC3"
		},
		{
			"bufferView":1,
			"componentType":5126,
			"count":48,
			"type":"VEC2"
		},
		{
			"bufferView":2,
			"componentType":5126,
			"count":48,
			"type":"VEC3"
		},
		{
			"bufferView":3,
			"componentType":5123,
			"count":84,
			"type":"SCALAR"
		},
		{
			"bufferView":4,
			"componentType":5126,
			"count":48,
			"max":[
				0.6567304730415344,
				0.3034015893936157,
				0.5544131994247437
			],
			"min":[
				-0.595947802066803,
				-0.026671141386032104,
				-0.49437952041625977
			],
			"type":"VEC3"
		},
		{
			"bufferView":5,
			"componentType":5126,
			"count":48,
			"type":"VEC2"
		},
		{
			"bufferView":6,
			"componentType":5126,
			"count":48,
			"type":"VEC3"
		},
		{
			"bufferView":7,
			"componentType":5123,
			"count":84,
			"type":"SCALAR"
		},
		{
			"bufferView":8,
			"componentType":5126,
			"count":48,
			"max":[
				0.6302821636199951,
				0.14893856644630432,
				0.5040265917778015
			],
			"min":[
				-0.60779869556427,
				-0.10647851973772049,
				-0.45131564140319824
			],
			"type":"VEC3"
		},
		{
			"bufferView":9,
			"componentType":5126,
			"count":48,
			"type":"VEC2"
		},
		{
			"bufferView":10,
			"componentType":5126,
			"count":48,
			"type":"VEC3"
		},
		{
			"bufferView":11,
			"componentType":5123,
			"count":84,
			"type":"SCALAR"
		},
		{
			"bufferView":12,
			"componentType":5126,
			"count":48,
			"max":[
				0.6567304730415344,
				0.3034015893936157,
				0.640343427658081
			],
			"min":[
				-0.6099729537963867,
				-0.05027998238801956,
				-0.5228190422058105
			],
			"type":"VEC3"
		},
		{
			"bufferView":13,
			"componentType":5126,
			"count":48,
			"type":"VEC2"
		},
		{
			"bufferView":14,
			"componentType":5126,
			"count":48,
			"type":"VEC3"
		},
		{
			"bufferView":15,
			"componentType":5123,
			"count":84,
			"type":"SCALAR"
		}
	],
	"bufferViews":[
		{
			"buffer":0,
			"byteLength":576,
			"byteOffset":0,
			"target":34962
		},
		{
			"buffer":0,
			"byteLength":384,
			"byteOffset":576,
			"target":34962
		},
		{
			"buffer":0,
			"byteLength":576,
			"byteOffset":960,
			"target":34962
		},
		{
			"buffer":0,
			"byteLength":168,
			"byteOffset":1536,
			"target":34963
		},
		{
			"buffer":0,
			"byteLength":576,
			"byteOffset":1704,
			"target":34962
		},
		{
			"buffer":0,
			"byteLength":384,
			"byteOffset":2280,
			"target":34962
		},
		{
			"buffer":0,
			"byteLength":576,
			"byteOffset":2664,
			"target":34962
		},
		{
			"buffer":0,
			"byteLength":168,
			"byteOffset":3240,
			"target":34963
		},
		{
			"buffer":0,
			"byteLength":576,
			"byteOffset":3408,
			"target":34962
		},
		{
			"buffer":0,
			"byteLength":384,
			"byteOffset":3984,
			"target":34962
		},
		{
			"buffer":0,
			"byteLength":576,
			"byteOffset":4368,
			"target":34962
		},
		{
			"buffer":0,
			"byteLength":168,
			"byteOffset":4944,
			"target":34963
		},
		{
			"buffer":0,
			"byteLength":576,
			"byteOffset":5112,
			"target":34962
		},
		{
			"buffer":0,
			"byteLength":384,
			"byteOffset":5688,
			"target":34962
		},
		{
			"buffer":0,
			"byteLength":576,
			"byteOffset":6072,
			"target":34962
		},
		{
			"buffer":0,
			"byteLength":168,
			"byteOffset":6648,
			"target":34963
		}
	],
	"buffers":[
		{
			"byteLength":6816,
			"uri":"data:application/octet-stream;base64,"
		}
	]
}
