{
	"asset":{
		"generator":"Khronos glTF Blender I/O v3.6.6",
		"version":"2.0"
	},
	"scene":0,
	"scenes":[
		{
			"extras":{
				"main_scene":{},
				"library_scene":{}
			},
			"name":"Library",
			"nodes":[
				0,
				1
			]
		}
	],
	"nodes":[
		{
			"mesh":0,
			"name":"Bread_Slice",
			"scale":[
				0.9189825654029846,
				0.9189825654029846,
				0.9189825654029846
			]
		},
		{
			"extras":{
				"FoodStats":"(hydration: -3, glucose:12, fat: 2, health: 0)",
				"RigidBody":"Dynamic",
				"Collider":"Mesh",
				"Food":"",
				"FoodProperties":"(health: 3, total_health: 3, time_per_bite: 0.4)"
			},
			"name":"Bread_Slice_components"
		}
	],
	"materials":[
		{
			"doubleSided":true,
			"name":"Brown.013",
			"pbrMetallicRoughness":{
				"baseColorFactor":[
					0.16263727843761444,
					0.10511866211891174,
					0.04624766856431961,
					1
				],
				"metallicFactor":0,
				"roughnessFactor":0.5
			}
		},
		{
			"doubleSided":true,
			"name":"Light",
			"pbrMetallicRoughness":{
				"baseColorFactor":[
					0.36722829937934875,
					0.2665834128856659,
					0.1561516970396042,
					1
				],
				"metallicFactor":0,
				"roughnessFactor":0.5
			}
		}
	],
	"meshes":[
		{
			"name":"Cube.033-0",
			"primitives":[
				{
					"attributes":{
						"POSITION":0,
						"TEXCOORD_0":1,
						"NORMAL":2
					},
					"indices":3,
					"material":0
				},
				{
					"attributes":{
						"POSITION":4,
						"TEXCOORD_0":5,
						"NORMAL":6
					},
					"indices":7,
					"material":1
				}
			]
		}
	],
	"accessors":[
		{
			"bufferView":0,
			"componentType":5126,
			"count":528,
			"max":[
				0.06919071823358536,
				0.0712917149066925,
				0.01082772295922041
			],
			"min":[
				-0.06947728246450424,
				-0.09811298549175262,
				-0.01082772295922041
			],
			"type":"VEC3"
		},
		{
			"bufferView":1,
			"componentType":5126,
			"count":528,
			"type":"VEC2"
		},
		{
			"bufferView":2,
			"componentType":5126,
			"count":528,
			"type":"VEC3"
		},
		{
			"bufferView":3,
			"componentType":5123,
			"count":528,
			"type":"SCALAR"
		},
		{
			"bufferView":4,
			"componentType":5126,
			"count":576,
			"max":[
				0.05701239034533501,
				0.0617542564868927,
				0.01082772295922041
			],
			"min":[
				-0.05729898065328598,
				-0.08973030745983124,
				-0.01082772295922041
			],
			"type":"VEC3"
		},
		{
			"bufferView":5,
			"componentType":5126,
			"count":576,
			"type":"VEC2"
		},
		{
			"bufferView":6,
			"componentType":5126,
			"count":576,
			"type":"VEC3"
		},
		{
			"bufferView":7,
			"componentType":5123,
			"count":576,
			"type":"SCALAR"
		}
	],
	"bufferViews":[
		{
			"buffer":0,
			"byteLength":6336,
			"byteOffset":0,
			"target":34962
		},
		{
			"buffer":0,
			"byteLength":4224,
			"byteOffset":6336,
			"target":34962
		},
		{
			"buffer":0,
			"byteLength":6336,
			"byteOffset":10560,
			"target":34962
		},
		{
			"buffer":0,
			"byteLength":1056,
			"byteOffset":16896,
			"target":34963
		},
		{
			"buffer":0,
			"byteLength":6912,
			"byteOffset":17952,
			"target":34962
		},
		{
			"buffer":0,
			"byteLength":4608,
			"byteOffset":24864,
			"target":34962
		},
		{
			"buffer":0,
			"byteLength":6912,
			"byteOffset":29472,
			"target":34962
		},
		{
			"buffer":0,
			"byteLength":1152,
			"byteOffset":36384,
			"target":34963
		}
	],
	"buffers":[
		{
			"byteLength":37536,
			"uri":"data:application/octet-stream;base64,"
		}
	]
}
