{
	"asset":{
		"generator":"Khronos glTF Blender I/O v3.6.6",
		"version":"2.0"
	},
	"scene":0,
	"scenes":[
		{
			"extras":{
				"main_scene":{},
				"library_scene":{}
			},
			"name":"Library",
			"nodes":[
				0,
				1,
				2
			]
		}
	],
	"nodes":[
		{
			"mesh":0,
			"name":"Broccoli"
		},
		{
			"extras":{
				"FoodStats":"(hydration: 8, glucose:4, fat: 2, health: 0)",
				"RigidBody":"Dynamic",
				"Collider":"Mesh",
				"Food":"",
				"FoodProperties":"(health: 12, total_health: 12, time_per_bite: 0.1)"
			},
			"name":"Broccoli_components"
		},
		{
			"extras":{
				"Visibility":"Hidden"
			},
			"mesh":1,
			"name":"Cube.034",
			"translation":[
				0,
				0.03846980258822441,
				0
			]
		}
	],
	"materials":[
		{
			"doubleSided":true,
			"name":"LightGreen.013",
			"pbrMetallicRoughness":{
				"baseColorFactor":[
					0.13563336431980133,
					0.3564002215862274,
					0.06847818195819855,
					1
				],
				"metallicFactor":0,
				"roughnessFactor":0.5
			}
		},
		{
			"doubleSided":true,
			"name":"DarkGreen.001",
			"pbrMetallicRoughness":{
				"baseColorFactor":[
					0.030614575371146202,
					0.060716111212968826,
					0.0277488362044096,
					1
				],
				"metallicFactor":0,
				"roughnessFactor":0.5
			}
		}
	],
	"meshes":[
		{
			"name":"Cube.010-0",
			"primitives":[
				{
					"attributes":{
						"POSITION":0,
						"NORMAL":1
					},
					"indices":2,
					"material":0
				},
				{
					"attributes":{
						"POSITION":3,
						"NORMAL":4
					},
					"indices":5,
					"material":1
				}
			]
		},
		{
			"name":"Cube.056",
			"primitives":[
				{
					"attributes":{
						"POSITION":6,
						"TEXCOORD_0":7,
						"NORMAL":8
					},
					"indices":9
				}
			]
		}
	],
	"accessors":[
		{
			"bufferView":0,
			"componentType":5126,
			"count":378,
			"max":[
				0.029471466317772865,
				0.09826809167861938,
				0.03131924942135811
			],
			"min":[
				-0.03472591191530228,
				-0.000509648525621742,
				-0.0360165536403656
			],
			"type":"VEC3"
		},
		{
			"bufferView":1,
			"componentType":5126,
			"count":378,
			"type":"VEC3"
		},
		{
			"bufferView":2,
			"componentType":5123,
			"count":378,
			"type":"SCALAR"
		},
		{
			"bufferView":3,
			"componentType":5126,
			"count":432,
			"max":[
				0.057667508721351624,
				0.1387132853269577,
				0.050288956612348557
			],
			"min":[
				-0.05862611532211304,
				0.06168916076421738,
				-0.04943659529089928
			],
			"type":"VEC3"
		},
		{
			"bufferView":4,
			"componentType":5126,
			"count":432,
			"type":"VEC3"
		},
		{
			"bufferView":5,
			"componentType":5123,
			"count":432,
			"type":"SCALAR"
		},
		{
			"bufferView":6,
			"componentType":5126,
			"count":24,
			"max":[
				0.02496679499745369,
				0.03966469690203667,
				0.02496679499745369
			],
			"min":[
				-0.02496679499745369,
				-0.03966469690203667,
				-0.02496679499745369
			],
			"type":"VEC3"
		},
		{
			"bufferView":7,
			"componentType":5126,
			"count":24,
			"type":"VEC2"
		},
		{
			"bufferView":8,
			"componentType":5126,
			"count":24,
			"type":"VEC3"
		},
		{
			"bufferView":9,
			"componentType":5123,
			"count":36,
			"type":"SCALAR"
		}
	],
	"bufferViews":[
		{
			"buffer":0,
			"byteLength":4536,
			"byteOffset":0,
			"target":34962
		},
		{
			"buffer":0,
			"byteLength":4536,
			"byteOffset":4536,
			"target":34962
		},
		{
			"buffer":0,
			"byteLength":756,
			"byteOffset":9072,
			"target":34963
		},
		{
			"buffer":0,
			"byteLength":5184,
			"byteOffset":9828,
			"target":34962
		},
		{
			"buffer":0,
			"byteLength":5184,
			"byteOffset":15012,
			"target":34962
		},
		{
			"buffer":0,
			"byteLength":864,
			"byteOffset":20196,
			"target":34963
		},
		{
			"buffer":0,
			"byteLength":288,
			"byteOffset":21060,
			"target":34962
		},
		{
			"buffer":0,
			"byteLength":192,
			"byteOffset":21348,
			"target":34962
		},
		{
			"buffer":0,
			"byteLength":288,
			"byteOffset":21540,
			"target":34962
		},
		{
			"buffer":0,
			"byteLength":72,
			"byteOffset":21828,
			"target":34963
		}
	],
	"buffers":[
		{
			"byteLength":21900,
			"uri":"data:application/octet-stream;base64,"
		}
	]
}
