{
	"asset":{
		"generator":"Khronos glTF Blender I/O v3.6.6",
		"version":"2.0"
	},
	"scene":0,
	"scenes":[
		{
			"extras":{
				"main_scene":{},
				"library_scene":{}
			},
			"name":"Library",
			"nodes":[
				0,
				1,
				2
			]
		}
	],
	"nodes":[
		{
			"mesh":0,
			"name":"Burger"
		},
		{
			"extras":{
				"FoodStats":"(calories: 250, health: 0)",
				"RigidBody":"Dynamic",
				"Collider":"Cylinder(0.032, 0.062)",
				"Food":"",
				"FoodProperties":"(bites: 8, total_bites: 8, time_per_bite: 1)"
			},
			"name":"Burger_components"
		},
		{
			"extras":{
				"Visibility":"Hidden"
			},
			"mesh":1,
			"name":"Cylinder.001"
		}
	],
	"materials":[
		{
			"doubleSided":true,
			"name":"LightYellow",
			"pbrMetallicRoughness":{
				"baseColorFactor":[
					0.4575255215167999,
					0.32352927327156067,
					0.1709245890378952,
					1
				],
				"metallicFactor":0,
				"roughnessFactor":0.5
			}
		},
		{
			"doubleSided":true,
			"name":"White",
			"pbrMetallicRoughness":{
				"baseColorFactor":[
					0.4575227200984955,
					0.4575227200984955,
					0.4575227200984955,
					1
				],
				"metallicFactor":0,
				"roughnessFactor":0.5
			}
		},
		{
			"doubleSided":true,
			"name":"Cheese",
			"pbrMetallicRoughness":{
				"baseColorFactor":[
					0.5277149677276611,
					0.5179892182350159,
					0.05597277730703354,
					1
				],
				"metallicFactor":0,
				"roughnessFactor":0.5
			}
		},
		{
			"doubleSided":true,
			"name":"Brown",
			"pbrMetallicRoughness":{
				"baseColorFactor":[
					0.16263727843761444,
					0.10511866211891174,
					0.04624766856431961,
					1
				],
				"metallicFactor":0,
				"roughnessFactor":0.5
			}
		},
		{
			"doubleSided":true,
			"name":"Red",
			"pbrMetallicRoughness":{
				"baseColorFactor":[
					0.4575255215167999,
					0.08468689769506454,
					0.05452617257833481,
					1
				],
				"metallicFactor":0,
				"roughnessFactor":0.5
			}
		},
		{
			"doubleSided":true,
			"name":"LightGreen",
			"pbrMetallicRoughness":{
				"baseColorFactor":[
					0.13563336431980133,
					0.3564002215862274,
					0.06847818195819855,
					1
				],
				"metallicFactor":0,
				"roughnessFactor":0.5
			}
		}
	],
	"meshes":[
		{
			"name":"Icosphere.001",
			"primitives":[
				{
					"attributes":{
						"POSITION":0,
						"NORMAL":1
					},
					"indices":2,
					"material":0
				},
				{
					"attributes":{
						"POSITION":3,
						"NORMAL":4
					},
					"indices":5,
					"material":1
				},
				{
					"attributes":{
						"POSITION":6,
						"NORMAL":7
					},
					"indices":8,
					"material":2
				},
				{
					"attributes":{
						"POSITION":9,
						"NORMAL":10
					},
					"indices":11,
					"material":3
				},
				{
					"attributes":{
						"POSITION":12,
						"NORMAL":13
					},
					"indices":14,
					"material":4
				},
				{
					"attributes":{
						"POSITION":15,
						"NORMAL":16
					},
					"indices":17,
					"material":5
				}
			]
		},
		{
			"name":"Cylinder.001",
			"primitives":[
				{
					"attributes":{
						"POSITION":18,
						"TEXCOORD_0":19,
						"NORMAL":20
					},
					"indices":21
				}
			]
		}
	],
	"accessors":[
		{
			"bufferView":0,
			"componentType":5126,
			"count":340,
			"max":[
				0.0582733117043972,
				0.04166868329048157,
				0.05790598690509796
			],
			"min":[
				-0.057635802775621414,
				-0.04190155863761902,
				-0.06593450158834457
			],
			"type":"VEC3"
		},
		{
			"bufferView":1,
			"componentType":5126,
			"count":340,
			"type":"VEC3"
		},
		{
			"bufferView":2,
			"componentType":5123,
			"count":408,
			"type":"SCALAR"
		},
		{
			"bufferView":3,
			"componentType":5126,
			"count":300,
			"max":[
				0.04462810605764389,
				0.03917217627167702,
				0.0395439974963665
			],
			"min":[
				-0.04757743328809738,
				0.023146336898207664,
				-0.051443081349134445
			],
			"type":"VEC3"
		},
		{
			"bufferView":4,
			"componentType":5126,
			"count":300,
			"type":"VEC3"
		},
		{
			"bufferView":5,
			"componentType":5123,
			"count":450,
			"type":"SCALAR"
		},
		{
			"bufferView":6,
			"componentType":5126,
			"count":296,
			"max":[
				0.049121152609586716,
				0.008079475723206997,
				0.05081120878458023
			],
			"min":[
				-0.04789351299405098,
				-0.008428577333688736,
				-0.053240422159433365
			],
			"type":"VEC3"
		},
		{
			"bufferView":7,
			"componentType":5126,
			"count":296,
			"type":"VEC3"
		},
		{
			"bufferView":8,
			"componentType":5123,
			"count":432,
			"type":"SCALAR"
		},
		{
			"bufferView":9,
			"componentType":5126,
			"count":256,
			"max":[
				0.05653011053800583,
				0.004065537825226784,
				0.054701730608940125
			],
			"min":[
				-0.05530247092247009,
				-0.022323723882436752,
				-0.05713093653321266
			],
			"type":"VEC3"
		},
		{
			"bufferView":10,
			"componentType":5126,
			"count":256,
			"type":"VEC3"
		},
		{
			"bufferView":11,
			"componentType":5123,
			"count":384,
			"type":"SCALAR"
		},
		{
			"bufferView":12,
			"componentType":5126,
			"count":240,
			"max":[
				0.06218259409070015,
				0.016077585518360138,
				0.06152791157364845
			],
			"min":[
				-0.05859154462814331,
				-0.0024489806964993477,
				-0.053547319024801254
			],
			"type":"VEC3"
		},
		{
			"bufferView":13,
			"componentType":5126,
			"count":240,
			"type":"VEC3"
		},
		{
			"bufferView":14,
			"componentType":5123,
			"count":420,
			"type":"SCALAR"
		},
		{
			"bufferView":15,
			"componentType":5126,
			"count":447,
			"max":[
				0.06321045011281967,
				0.017519235610961914,
				0.06744152307510376
			],
			"min":[
				-0.06638939678668976,
				0.00042345921974629164,
				-0.06224385276436806
			],
			"type":"VEC3"
		},
		{
			"bufferView":16,
			"componentType":5126,
			"count":447,
			"type":"VEC3"
		},
		{
			"bufferView":17,
			"componentType":5123,
			"count":447,
			"type":"SCALAR"
		},
		{
			"bufferView":18,
			"componentType":5126,
			"count":192,
			"max":[
				0.061574846506118774,
				0.03232681006193161,
				0.06157488003373146
			],
			"min":[
				-0.061574846506118774,
				-0.03232681006193161,
				-0.06157488003373146
			],
			"type":"VEC3"
		},
		{
			"bufferView":19,
			"componentType":5126,
			"count":192,
			"type":"VEC2"
		},
		{
			"bufferView":20,
			"componentType":5126,
			"count":192,
			"type":"VEC3"
		},
		{
			"bufferView":21,
			"componentType":5123,
			"count":372,
			"type":"SCALAR"
		}
	],
	"bufferViews":[
		{
			"buffer":0,
			"byteLength":4080,
			"byteOffset":0,
			"target":34962
		},
		{
			"buffer":0,
			"byteLength":4080,
			"byteOffset":4080,
			"target":34962
		},
		{
			"buffer":0,
			"byteLength":816,
			"byteOffset":8160,
			"target":34963
		},
		{
			"buffer":0,
			"byteLength":3600,
			"byteOffset":8976,
			"target":34962
		},
		{
			"buffer":0,
			"byteLength":3600,
			"byteOffset":12576,
			"target":34962
		},
		{
			"buffer":0,
			"byteLength":900,
			"byteOffset":16176,
			"target":34963
		},
		{
			"buffer":0,
			"byteLength":3552,
			"byteOffset":17076,
			"target":34962
		},
		{
			"buffer":0,
			"byteLength":3552,
			"byteOffset":20628,
			"target":34962
		},
		{
			"buffer":0,
			"byteLength":864,
			"byteOffset":24180,
			"target":34963
		},
		{
			"buffer":0,
			"byteLength":3072,
			"byteOffset":25044,
			"target":34962
		},
		{
			"buffer":0,
			"byteLength":3072,
			"byteOffset":28116,
			"target":34962
		},
		{
			"buffer":0,
			"byteLength":768,
			"byteOffset":31188,
			"target":34963
		},
		{
			"buffer":0,
			"byteLength":2880,
			"byteOffset":31956,
			"target":34962
		},
		{
			"buffer":0,
			"byteLength":2880,
			"byteOffset":34836,
			"target":34962
		},
		{
			"buffer":0,
			"byteLength":840,
			"byteOffset":37716,
			"target":34963
		},
		{
			"buffer":0,
			"byteLength":5364,
			"byteOffset":38556,
			"target":34962
		},
		{
			"buffer":0,
			"byteLength":5364,
			"byteOffset":43920,
			"target":34962
		},
		{
			"buffer":0,
			"byteLength":894,
			"byteOffset":49284,
			"target":34963
		},
		{
			"buffer":0,
			"byteLength":2304,
			"byteOffset":50180,
			"target":34962
		},
		{
			"buffer":0,
			"byteLength":1536,
			"byteOffset":52484,
			"target":34962
		},
		{
			"buffer":0,
			"byteLength":2304,
			"byteOffset":54020,
			"target":34962
		},
		{
			"buffer":0,
			"byteLength":744,
			"byteOffset":56324,
			"target":34963
		}
	],
	"buffers":[
		{
			"byteLength":57068,
			"uri":"data:application/octet-stream;base64,"
		}
	]
}
