{
	"asset":{
		"generator":"Khronos glTF Blender I/O v3.6.6",
		"version":"2.0"
	},
	"scene":0,
	"scenes":[
		{
			"name":"Library",
			"nodes":[
				0,
				1
			]
		}
	],
	"nodes":[
		{
			"mesh":0,
			"name":"Burger",
			"scale":[
				0.08526645600795746,
				0.08526645600795746,
				0.08526645600795746
			]
		},
		{
			"extras":{
				"HydrationPower":0.25,
				"GlucosePower":0.5,
				"FatPower":0.8500000238418579
			},
			"name":"Burger_components"
		}
	],
	"materials":[
		{
			"doubleSided":true,
			"name":"LightYellow",
			"pbrMetallicRoughness":{
				"baseColorFactor":[
					0.4575255215167999,
					0.32352927327156067,
					0.1709245890378952,
					1
				],
				"metallicFactor":0,
				"roughnessFactor":0.5
			}
		},
		{
			"doubleSided":true,
			"name":"White",
			"pbrMetallicRoughness":{
				"baseColorFactor":[
					0.4575227200984955,
					0.4575227200984955,
					0.4575227200984955,
					1
				],
				"metallicFactor":0,
				"roughnessFactor":0.5
			}
		},
		{
			"doubleSided":true,
			"name":"Cheese",
			"pbrMetallicRoughness":{
				"baseColorFactor":[
					0.5277149677276611,
					0.5179892182350159,
					0.05597277730703354,
					1
				],
				"metallicFactor":0,
				"roughnessFactor":0.5
			}
		},
		{
			"doubleSided":true,
			"name":"Brown",
			"pbrMetallicRoughness":{
				"baseColorFactor":[
					0.16263727843761444,
					0.10511866211891174,
					0.04624766856431961,
					1
				],
				"metallicFactor":0,
				"roughnessFactor":0.5
			}
		},
		{
			"doubleSided":true,
			"name":"Red",
			"pbrMetallicRoughness":{
				"baseColorFactor":[
					0.4575255215167999,
					0.08468689769506454,
					0.05452617257833481,
					1
				],
				"metallicFactor":0,
				"roughnessFactor":0.5
			}
		},
		{
			"doubleSided":true,
			"name":"LightGreen",
			"pbrMetallicRoughness":{
				"baseColorFactor":[
					0.13563336431980133,
					0.3564002215862274,
					0.06847818195819855,
					1
				],
				"metallicFactor":0,
				"roughnessFactor":0.5
			}
		}
	],
	"meshes":[
		{
			"name":"Icosphere.001",
			"primitives":[
				{
					"attributes":{
						"POSITION":0,
						"NORMAL":1
					},
					"indices":2,
					"material":0
				},
				{
					"attributes":{
						"POSITION":3,
						"NORMAL":4
					},
					"indices":5,
					"material":1
				},
				{
					"attributes":{
						"POSITION":6,
						"NORMAL":7
					},
					"indices":8,
					"material":2
				},
				{
					"attributes":{
						"POSITION":9,
						"NORMAL":10
					},
					"indices":11,
					"material":3
				},
				{
					"attributes":{
						"POSITION":12,
						"NORMAL":13
					},
					"indices":14,
					"material":4
				},
				{
					"attributes":{
						"POSITION":15,
						"NORMAL":16
					},
					"indices":17,
					"material":5
				}
			]
		}
	],
	"accessors":[
		{
			"bufferView":0,
			"componentType":5126,
			"count":340,
			"max":[
				0.7427769303321838,
				0.6452086567878723,
				0.7380943894386292
			],
			"min":[
				-0.7346509695053101,
				-0.4200132489204407,
				-0.8404292464256287
			],
			"type":"VEC3"
		},
		{
			"bufferView":1,
			"componentType":5126,
			"count":340,
			"type":"VEC3"
		},
		{
			"bufferView":2,
			"componentType":5123,
			"count":408,
			"type":"SCALAR"
		},
		{
			"bufferView":3,
			"componentType":5126,
			"count":300,
			"max":[
				0.5688492655754089,
				0.6133871078491211,
				0.5040446519851685
			],
			"min":[
				-0.6064426302909851,
				0.4091149568557739,
				-0.6557154655456543
			],
			"type":"VEC3"
		},
		{
			"bufferView":4,
			"componentType":5126,
			"count":300,
			"type":"VEC3"
		},
		{
			"bufferView":5,
			"componentType":5123,
			"count":450,
			"type":"SCALAR"
		},
		{
			"bufferView":6,
			"componentType":5126,
			"count":296,
			"max":[
				0.6261195540428162,
				0.21706631779670715,
				0.6476613283157349
			],
			"min":[
				-0.6104715466499329,
				0.006647631525993347,
				-0.6786251068115234
			],
			"type":"VEC3"
		},
		{
			"bufferView":7,
			"componentType":5126,
			"count":296,
			"type":"VEC3"
		},
		{
			"bufferView":8,
			"componentType":5123,
			"count":432,
			"type":"SCALAR"
		},
		{
			"bufferView":9,
			"componentType":5126,
			"count":256,
			"max":[
				0.7205573916435242,
				0.16590294241905212,
				0.697251558303833
			],
			"min":[
				-0.7049093842506409,
				-0.17046581208705902,
				-0.7282152771949768
			],
			"type":"VEC3"
		},
		{
			"bufferView":10,
			"componentType":5126,
			"count":256,
			"type":"VEC3"
		},
		{
			"bufferView":11,
			"componentType":5123,
			"count":384,
			"type":"SCALAR"
		},
		{
			"bufferView":12,
			"componentType":5126,
			"count":240,
			"max":[
				0.7926064133644104,
				0.3190136253833771,
				0.7842609882354736
			],
			"min":[
				-0.7468332648277283,
				0.0828661173582077,
				-0.6825369596481323
			],
			"type":"VEC3"
		},
		{
			"bufferView":13,
			"componentType":5126,
			"count":240,
			"type":"VEC3"
		},
		{
			"bufferView":14,
			"componentType":5123,
			"count":420,
			"type":"SCALAR"
		},
		{
			"bufferView":15,
			"componentType":5126,
			"count":447,
			"max":[
				0.8057078719139099,
				0.3373895287513733,
				0.8596383333206177
			],
			"min":[
				-0.8462281227111816,
				0.1194794625043869,
				-0.793386697769165
			],
			"type":"VEC3"
		},
		{
			"bufferView":16,
			"componentType":5126,
			"count":447,
			"type":"VEC3"
		},
		{
			"bufferView":17,
			"componentType":5123,
			"count":447,
			"type":"SCALAR"
		}
	],
	"bufferViews":[
		{
			"buffer":0,
			"byteLength":4080,
			"byteOffset":0,
			"target":34962
		},
		{
			"buffer":0,
			"byteLength":4080,
			"byteOffset":4080,
			"target":34962
		},
		{
			"buffer":0,
			"byteLength":816,
			"byteOffset":8160,
			"target":34963
		},
		{
			"buffer":0,
			"byteLength":3600,
			"byteOffset":8976,
			"target":34962
		},
		{
			"buffer":0,
			"byteLength":3600,
			"byteOffset":12576,
			"target":34962
		},
		{
			"buffer":0,
			"byteLength":900,
			"byteOffset":16176,
			"target":34963
		},
		{
			"buffer":0,
			"byteLength":3552,
			"byteOffset":17076,
			"target":34962
		},
		{
			"buffer":0,
			"byteLength":3552,
			"byteOffset":20628,
			"target":34962
		},
		{
			"buffer":0,
			"byteLength":864,
			"byteOffset":24180,
			"target":34963
		},
		{
			"buffer":0,
			"byteLength":3072,
			"byteOffset":25044,
			"target":34962
		},
		{
			"buffer":0,
			"byteLength":3072,
			"byteOffset":28116,
			"target":34962
		},
		{
			"buffer":0,
			"byteLength":768,
			"byteOffset":31188,
			"target":34963
		},
		{
			"buffer":0,
			"byteLength":2880,
			"byteOffset":31956,
			"target":34962
		},
		{
			"buffer":0,
			"byteLength":2880,
			"byteOffset":34836,
			"target":34962
		},
		{
			"buffer":0,
			"byteLength":840,
			"byteOffset":37716,
			"target":34963
		},
		{
			"buffer":0,
			"byteLength":5364,
			"byteOffset":38556,
			"target":34962
		},
		{
			"buffer":0,
			"byteLength":5364,
			"byteOffset":43920,
			"target":34962
		},
		{
			"buffer":0,
			"byteLength":894,
			"byteOffset":49284,
			"target":34963
		}
	],
	"buffers":[
		{
			"byteLength":50180,
			"uri":"data:application/octet-stream;base64,"
		}
	]
}
