{
	"asset":{
		"generator":"Khronos glTF Blender I/O v3.6.6",
		"version":"2.0"
	},
	"scene":0,
	"scenes":[
		{
			"extras":{
				"main_scene":{},
				"library_scene":{}
			},
			"name":"Library",
			"nodes":[
				0,
				1
			]
		}
	],
	"nodes":[
		{
			"mesh":0,
			"name":"Carrot",
			"translation":[
				0,
				0.0429169237613678,
				0
			]
		},
		{
			"extras":{
				"FoodStats":"(hydration: 6, glucose:8, fat: 3, health: 0)",
				"RigidBody":"Dynamic",
				"Collider":"Mesh",
				"Food":"",
				"FoodProperties":"(health: 3, total_health: 3, time_per_bite: 0.5)"
			},
			"name":"Carrot_components"
		}
	],
	"materials":[
		{
			"doubleSided":true,
			"name":"Orange",
			"pbrMetallicRoughness":{
				"baseColorFactor":[
					0.4575255215167999,
					0.15784107148647308,
					0.046494260430336,
					1
				],
				"metallicFactor":0,
				"roughnessFactor":0.5
			}
		},
		{
			"doubleSided":true,
			"name":"DarkGreen.002",
			"pbrMetallicRoughness":{
				"baseColorFactor":[
					0.030614575371146202,
					0.060716111212968826,
					0.0277488362044096,
					1
				],
				"metallicFactor":0,
				"roughnessFactor":0.5
			}
		}
	],
	"meshes":[
		{
			"name":"Cube.047-0",
			"primitives":[
				{
					"attributes":{
						"POSITION":0,
						"NORMAL":1
					},
					"indices":2,
					"material":0
				},
				{
					"attributes":{
						"POSITION":3,
						"NORMAL":4
					},
					"indices":5,
					"material":1
				}
			]
		}
	],
	"accessors":[
		{
			"bufferView":0,
			"componentType":5126,
			"count":240,
			"max":[
				0.020548531785607338,
				0.03679618611931801,
				0.02054857462644577
			],
			"min":[
				-0.020548531785607338,
				-0.11997073888778687,
				-0.02054857462644577
			],
			"type":"VEC3"
		},
		{
			"bufferView":1,
			"componentType":5126,
			"count":240,
			"type":"VEC3"
		},
		{
			"bufferView":2,
			"componentType":5123,
			"count":240,
			"type":"SCALAR"
		},
		{
			"bufferView":3,
			"componentType":5126,
			"count":2352,
			"max":[
				0.05811280384659767,
				0.21792563796043396,
				0.05778123065829277
			],
			"min":[
				-0.057017553597688675,
				0.02792845480144024,
				-0.05551241710782051
			],
			"type":"VEC3"
		},
		{
			"bufferView":4,
			"componentType":5126,
			"count":2352,
			"type":"VEC3"
		},
		{
			"bufferView":5,
			"componentType":5123,
			"count":2352,
			"type":"SCALAR"
		}
	],
	"bufferViews":[
		{
			"buffer":0,
			"byteLength":2880,
			"byteOffset":0,
			"target":34962
		},
		{
			"buffer":0,
			"byteLength":2880,
			"byteOffset":2880,
			"target":34962
		},
		{
			"buffer":0,
			"byteLength":480,
			"byteOffset":5760,
			"target":34963
		},
		{
			"buffer":0,
			"byteLength":28224,
			"byteOffset":6240,
			"target":34962
		},
		{
			"buffer":0,
			"byteLength":28224,
			"byteOffset":34464,
			"target":34962
		},
		{
			"buffer":0,
			"byteLength":4704,
			"byteOffset":62688,
			"target":34963
		}
	],
	"buffers":[
		{
			"byteLength":67392,
			"uri":"data:application/octet-stream;base64,"
		}
	]
}
