{
	"asset":{
		"generator":"Khronos glTF Blender I/O v3.6.6",
		"version":"2.0"
	},
	"scene":0,
	"scenes":[
		{
			"extras":{
				"main_scene":{},
				"library_scene":{}
			},
			"name":"Library",
			"nodes":[
				0,
				1
			]
		}
	],
	"nodes":[
		{
			"mesh":0,
			"name":"ChickenLeg"
		},
		{
			"extras":{
				"FoodStats":"(hydration: 1, glucose:8, fat: 17, health: 0)",
				"RigidBody":"Dynamic",
				"Collider":"Mesh",
				"Food":"",
				"FoodProperties":"(health: 4, total_health: 4, time_per_bite: 1.5)"
			},
			"name":"ChickenLeg_components"
		}
	],
	"materials":[
		{
			"doubleSided":true,
			"name":"DarkBrown.001",
			"pbrMetallicRoughness":{
				"baseColorFactor":[
					0.1574276238679886,
					0.07110017538070679,
					0.04681858792901039,
					1
				],
				"metallicFactor":0,
				"roughnessFactor":0.5
			}
		},
		{
			"doubleSided":true,
			"name":"Beige",
			"pbrMetallicRoughness":{
				"baseColorFactor":[
					0.3423786163330078,
					0.29983246326446533,
					0.21136511862277985,
					1
				],
				"metallicFactor":0,
				"roughnessFactor":0.5
			}
		}
	],
	"meshes":[
		{
			"name":"Cube.048-0",
			"primitives":[
				{
					"attributes":{
						"POSITION":0,
						"NORMAL":1
					},
					"indices":2,
					"material":0
				},
				{
					"attributes":{
						"POSITION":3,
						"NORMAL":4
					},
					"indices":5,
					"material":1
				}
			]
		}
	],
	"accessors":[
		{
			"bufferView":0,
			"componentType":5126,
			"count":480,
			"max":[
				0.12209147959947586,
				0.057419825345277786,
				0.06119473651051521
			],
			"min":[
				-0.069883331656456,
				-0.050304215401411057,
				-0.061194729059934616
			],
			"type":"VEC3"
		},
		{
			"bufferView":1,
			"componentType":5126,
			"count":480,
			"type":"VEC3"
		},
		{
			"bufferView":2,
			"componentType":5123,
			"count":480,
			"type":"SCALAR"
		},
		{
			"bufferView":3,
			"componentType":5126,
			"count":384,
			"max":[
				-0.06627307087182999,
				0.03472672030329704,
				0.024339616298675537
			],
			"min":[
				-0.1577015221118927,
				-0.05888281390070915,
				-0.024339621886610985
			],
			"type":"VEC3"
		},
		{
			"bufferView":4,
			"componentType":5126,
			"count":384,
			"type":"VEC3"
		},
		{
			"bufferView":5,
			"componentType":5123,
			"count":384,
			"type":"SCALAR"
		}
	],
	"bufferViews":[
		{
			"buffer":0,
			"byteLength":5760,
			"byteOffset":0,
			"target":34962
		},
		{
			"buffer":0,
			"byteLength":5760,
			"byteOffset":5760,
			"target":34962
		},
		{
			"buffer":0,
			"byteLength":960,
			"byteOffset":11520,
			"target":34963
		},
		{
			"buffer":0,
			"byteLength":4608,
			"byteOffset":12480,
			"target":34962
		},
		{
			"buffer":0,
			"byteLength":4608,
			"byteOffset":17088,
			"target":34962
		},
		{
			"buffer":0,
			"byteLength":768,
			"byteOffset":21696,
			"target":34963
		}
	],
	"buffers":[
		{
			"byteLength":22464,
			"uri":"data:application/octet-stream;base64,"
		}
	]
}
