{
	"asset":{
		"generator":"Khronos glTF Blender I/O v3.6.6",
		"version":"2.0"
	},
	"scene":0,
	"scenes":[
		{
			"extras":{
				"main_scene":{},
				"library_scene":{}
			},
			"name":"Library",
			"nodes":[
				0,
				1
			]
		}
	],
	"nodes":[
		{
			"mesh":0,
			"name":"Croissant"
		},
		{
			"extras":{
				"FoodStats":"(hydration: -1, glucose:6, fat: 6, health: 0)",
				"RigidBody":"Dynamic",
				"Collider":"Mesh",
				"Food":"",
				"FoodProperties":"(health: 6, total_health: 6, time_per_bite: 0.6)"
			},
			"name":"Croissant_components"
		}
	],
	"materials":[
		{
			"doubleSided":true,
			"name":"LightYellow.013",
			"pbrMetallicRoughness":{
				"baseColorFactor":[
					0.4575255215167999,
					0.32352927327156067,
					0.1709245890378952,
					1
				],
				"metallicFactor":0,
				"roughnessFactor":0.5
			}
		}
	],
	"meshes":[
		{
			"name":"Cube.086",
			"primitives":[
				{
					"attributes":{
						"POSITION":0,
						"NORMAL":1
					},
					"indices":2,
					"material":0
				}
			]
		}
	],
	"accessors":[
		{
			"bufferView":0,
			"componentType":5126,
			"count":396,
			"max":[
				0.13044750690460205,
				0.054978467524051666,
				0.09111955016851425
			],
			"min":[
				-0.13044750690460205,
				-0.054978467524051666,
				-0.054978467524051666
			],
			"type":"VEC3"
		},
		{
			"bufferView":1,
			"componentType":5126,
			"count":396,
			"type":"VEC3"
		},
		{
			"bufferView":2,
			"componentType":5123,
			"count":396,
			"type":"SCALAR"
		}
	],
	"bufferViews":[
		{
			"buffer":0,
			"byteLength":4752,
			"byteOffset":0,
			"target":34962
		},
		{
			"buffer":0,
			"byteLength":4752,
			"byteOffset":4752,
			"target":34962
		},
		{
			"buffer":0,
			"byteLength":792,
			"byteOffset":9504,
			"target":34963
		}
	],
	"buffers":[
		{
			"byteLength":10296,
			"uri":"data:application/octet-stream;base64,"
		}
	]
}
