{
	"asset":{
		"generator":"Khronos glTF Blender I/O v3.6.6",
		"version":"2.0"
	},
	"scene":0,
	"scenes":[
		{
			"extras":{
				"main_scene":{},
				"library_scene":{}
			},
			"name":"Library",
			"nodes":[
				0,
				1
			]
		}
	],
	"nodes":[
		{
			"mesh":0,
			"name":"Eggplant"
		},
		{
			"extras":{
				"FoodStats":"(hydration: 12, glucose:10, fat: 6, health: 0)",
				"RigidBody":"Dynamic",
				"Collider":"Mesh",
				"Food":"",
				"FoodProperties":"(health: 8, total_health: 8, time_per_bite: 1.2)"
			},
			"name":"Eggplant_components"
		}
	],
	"materials":[
		{
			"doubleSided":true,
			"name":"Purple",
			"pbrMetallicRoughness":{
				"baseColorFactor":[
					0.05696569383144379,
					0.044550132006406784,
					0.20189394056797028,
					1
				],
				"metallicFactor":0,
				"roughnessFactor":0.5
			}
		},
		{
			"doubleSided":true,
			"name":"DarkGreen.003",
			"pbrMetallicRoughness":{
				"baseColorFactor":[
					0.030614575371146202,
					0.060716111212968826,
					0.0277488362044096,
					1
				],
				"metallicFactor":0,
				"roughnessFactor":0.5
			}
		}
	],
	"meshes":[
		{
			"name":"Cube.036-0",
			"primitives":[
				{
					"attributes":{
						"POSITION":0,
						"NORMAL":1
					},
					"indices":2,
					"material":0
				},
				{
					"attributes":{
						"POSITION":3,
						"NORMAL":4
					},
					"indices":5,
					"material":1
				}
			]
		}
	],
	"accessors":[
		{
			"bufferView":0,
			"componentType":5126,
			"count":432,
			"max":[
				0.06259216368198395,
				0.16240841150283813,
				0.06011933088302612
			],
			"min":[
				-0.09581366181373596,
				-0.12099577486515045,
				-0.06011931598186493
			],
			"type":"VEC3"
		},
		{
			"bufferView":1,
			"componentType":5126,
			"count":432,
			"type":"VEC3"
		},
		{
			"bufferView":2,
			"componentType":5123,
			"count":432,
			"type":"SCALAR"
		},
		{
			"bufferView":3,
			"componentType":5126,
			"count":672,
			"max":[
				0.06532365828752518,
				0.1723933219909668,
				0.044475898146629333
			],
			"min":[
				-0.022653328254818916,
				0.08700648695230484,
				-0.043980326503515244
			],
			"type":"VEC3"
		},
		{
			"bufferView":4,
			"componentType":5126,
			"count":672,
			"type":"VEC3"
		},
		{
			"bufferView":5,
			"componentType":5123,
			"count":672,
			"type":"SCALAR"
		}
	],
	"bufferViews":[
		{
			"buffer":0,
			"byteLength":5184,
			"byteOffset":0,
			"target":34962
		},
		{
			"buffer":0,
			"byteLength":5184,
			"byteOffset":5184,
			"target":34962
		},
		{
			"buffer":0,
			"byteLength":864,
			"byteOffset":10368,
			"target":34963
		},
		{
			"buffer":0,
			"byteLength":8064,
			"byteOffset":11232,
			"target":34962
		},
		{
			"buffer":0,
			"byteLength":8064,
			"byteOffset":19296,
			"target":34962
		},
		{
			"buffer":0,
			"byteLength":1344,
			"byteOffset":27360,
			"target":34963
		}
	],
	"buffers":[
		{
			"byteLength":28704,
			"uri":"data:application/octet-stream;base64,"
		}
	]
}
