{
	"asset":{
		"generator":"Khronos glTF Blender I/O v3.6.6",
		"version":"2.0"
	},
	"scene":0,
	"scenes":[
		{
			"name":"Library",
			"nodes":[
				0,
				1
			]
		}
	],
	"nodes":[
		{
			"mesh":0,
			"name":"Icosphere"
		},
		{
			"extras":{
				"RigidBody":"Dynamic",
				"Collider":"Ball(1.0)"
			},
			"name":"Icosphere_components"
		}
	],
	"meshes":[
		{
			"name":"Icosphere",
			"primitives":[
				{
					"attributes":{
						"POSITION":0,
						"TEXCOORD_0":1,
						"NORMAL":2
					},
					"indices":3
				}
			]
		}
	],
	"accessors":[
		{
			"bufferView":0,
			"componentType":5126,
			"count":1200,
			"max":[
				1.2040300369262695,
				1.2405914068222046,
				1.2405906915664673
			],
			"min":[
				-1.2040300369262695,
				-1.2405914068222046,
				-1.2405906915664673
			],
			"type":"VEC3"
		},
		{
			"bufferView":1,
			"componentType":5126,
			"count":1200,
			"type":"VEC2"
		},
		{
			"bufferView":2,
			"componentType":5126,
			"count":1200,
			"type":"VEC3"
		},
		{
			"bufferView":3,
			"componentType":5123,
			"count":1680,
			"type":"SCALAR"
		}
	],
	"bufferViews":[
		{
			"buffer":0,
			"byteLength":14400,
			"byteOffset":0,
			"target":34962
		},
		{
			"buffer":0,
			"byteLength":9600,
			"byteOffset":14400,
			"target":34962
		},
		{
			"buffer":0,
			"byteLength":14400,
			"byteOffset":24000,
			"target":34962
		},
		{
			"buffer":0,
			"byteLength":3360,
			"byteOffset":38400,
			"target":34963
		}
	],
	"buffers":[
		{
			"byteLength":41760,
			"uri":"data:application/octet-stream;base64,"
		}
	]
}
