{
	"asset":{
		"generator":"Khronos glTF Blender I/O v3.6.6",
		"version":"2.0"
	},
	"scene":0,
	"scenes":[
		{
			"extras":{
				"main_scene":{},
				"library_scene":{}
			},
			"name":"Library",
			"nodes":[
				0,
				1
			]
		}
	],
	"nodes":[
		{
			"mesh":0,
			"name":"Hotdog"
		},
		{
			"extras":{
				"FoodStats":"(hydration: -4, glucose:10, fat: 18, health: 0)",
				"RigidBody":"Dynamic",
				"Collider":"Mesh",
				"Food":"",
				"FoodProperties":"(health: 6, total_health: 6, time_per_bite: 1.2)"
			},
			"name":"Hotdog_components"
		}
	],
	"materials":[
		{
			"doubleSided":true,
			"name":"LightYellow.014",
			"pbrMetallicRoughness":{
				"baseColorFactor":[
					0.4575255215167999,
					0.32352927327156067,
					0.1709245890378952,
					1
				],
				"metallicFactor":0,
				"roughnessFactor":0.5
			}
		},
		{
			"doubleSided":true,
			"name":"Cheese.013",
			"pbrMetallicRoughness":{
				"baseColorFactor":[
					0.5277149677276611,
					0.5179892182350159,
					0.05597277730703354,
					1
				],
				"metallicFactor":0,
				"roughnessFactor":0.5
			}
		},
		{
			"doubleSided":true,
			"name":"Red.013",
			"pbrMetallicRoughness":{
				"baseColorFactor":[
					0.4575255215167999,
					0.08468689769506454,
					0.05452617257833481,
					1
				],
				"metallicFactor":0,
				"roughnessFactor":0.5
			}
		},
		{
			"doubleSided":true,
			"name":"Hotdog",
			"pbrMetallicRoughness":{
				"baseColorFactor":[
					0.5173258185386658,
					0.3063502311706543,
					0.2544003129005432,
					1
				],
				"metallicFactor":0,
				"roughnessFactor":0.5
			}
		}
	],
	"meshes":[
		{
			"name":"Cube.004-0",
			"primitives":[
				{
					"attributes":{
						"POSITION":0,
						"NORMAL":1
					},
					"indices":2,
					"material":0
				},
				{
					"attributes":{
						"POSITION":3,
						"NORMAL":4
					},
					"indices":5,
					"material":1
				},
				{
					"attributes":{
						"POSITION":6,
						"NORMAL":7
					},
					"indices":8,
					"material":2
				},
				{
					"attributes":{
						"POSITION":9,
						"NORMAL":10
					},
					"indices":11,
					"material":3
				}
			]
		}
	],
	"accessors":[
		{
			"bufferView":0,
			"componentType":5126,
			"count":1464,
			"max":[
				0.07852929085493088,
				0.02100256457924843,
				0.16676536202430725
			],
			"min":[
				-0.07852929085493088,
				-0.06087154150009155,
				-0.1619221717119217
			],
			"type":"VEC3"
		},
		{
			"bufferView":1,
			"componentType":5126,
			"count":1464,
			"type":"VEC3"
		},
		{
			"bufferView":2,
			"componentType":5123,
			"count":1464,
			"type":"SCALAR"
		},
		{
			"bufferView":3,
			"componentType":5126,
			"count":624,
			"max":[
				0.015809204429388046,
				0.016109921038150787,
				0.1325257569551468
			],
			"min":[
				-0.016749072819948196,
				-0.001009385916404426,
				-0.12360352277755737
			],
			"type":"VEC3"
		},
		{
			"bufferView":4,
			"componentType":5126,
			"count":624,
			"type":"VEC3"
		},
		{
			"bufferView":5,
			"componentType":5123,
			"count":624,
			"type":"SCALAR"
		},
		{
			"bufferView":6,
			"componentType":5126,
			"count":456,
			"max":[
				0.01369159109890461,
				0.019572116434574127,
				0.12292730063199997
			],
			"min":[
				-0.012725292704999447,
				0.0003657117486000061,
				-0.10433442890644073
			],
			"type":"VEC3"
		},
		{
			"bufferView":7,
			"componentType":5126,
			"count":456,
			"type":"VEC3"
		},
		{
			"bufferView":8,
			"componentType":5123,
			"count":456,
			"type":"SCALAR"
		},
		{
			"bufferView":9,
			"componentType":5126,
			"count":420,
			"max":[
				0.023957034572958946,
				0.011534091085195541,
				0.16561342775821686
			],
			"min":[
				-0.023957034572958946,
				-0.036730553954839706,
				-0.16561345756053925
			],
			"type":"VEC3"
		},
		{
			"bufferView":10,
			"componentType":5126,
			"count":420,
			"type":"VEC3"
		},
		{
			"bufferView":11,
			"componentType":5123,
			"count":420,
			"type":"SCALAR"
		}
	],
	"bufferViews":[
		{
			"buffer":0,
			"byteLength":17568,
			"byteOffset":0,
			"target":34962
		},
		{
			"buffer":0,
			"byteLength":17568,
			"byteOffset":17568,
			"target":34962
		},
		{
			"buffer":0,
			"byteLength":2928,
			"byteOffset":35136,
			"target":34963
		},
		{
			"buffer":0,
			"byteLength":7488,
			"byteOffset":38064,
			"target":34962
		},
		{
			"buffer":0,
			"byteLength":7488,
			"byteOffset":45552,
			"target":34962
		},
		{
			"buffer":0,
			"byteLength":1248,
			"byteOffset":53040,
			"target":34963
		},
		{
			"buffer":0,
			"byteLength":5472,
			"byteOffset":54288,
			"target":34962
		},
		{
			"buffer":0,
			"byteLength":5472,
			"byteOffset":59760,
			"target":34962
		},
		{
			"buffer":0,
			"byteLength":912,
			"byteOffset":65232,
			"target":34963
		},
		{
			"buffer":0,
			"byteLength":5040,
			"byteOffset":66144,
			"target":34962
		},
		{
			"buffer":0,
			"byteLength":5040,
			"byteOffset":71184,
			"target":34962
		},
		{
			"buffer":0,
			"byteLength":840,
			"byteOffset":76224,
			"target":34963
		}
	],
	"buffers":[
		{
			"byteLength":77064,
			"uri":"data:application/octet-stream;base64,"
		}
	]
}
