{
	"asset":{
		"generator":"Khronos glTF Blender I/O v3.6.6",
		"version":"2.0"
	},
	"scene":0,
	"scenes":[
		{
			"extras":{
				"main_scene":{},
				"library_scene":{}
			},
			"name":"Library",
			"nodes":[
				0,
				1
			]
		}
	],
	"nodes":[
		{
			"mesh":0,
			"name":"Orange"
		},
		{
			"extras":{
				"FoodStats":"(hydration: 8, glucose:10, fat: 4, health: 0)",
				"RigidBody":"Dynamic",
				"Collider":"Ball(0.075)",
				"Food":"",
				"FoodProperties":"(health: 3, total_health: 3, time_per_bite: 0.4)"
			},
			"name":"Orange_components"
		}
	],
	"materials":[
		{
			"doubleSided":true,
			"name":"Orange.001",
			"pbrMetallicRoughness":{
				"baseColorFactor":[
					0.4575255215167999,
					0.15784107148647308,
					0.046494260430336,
					1
				],
				"metallicFactor":0,
				"roughnessFactor":0.5
			}
		}
	],
	"meshes":[
		{
			"name":"Cube.055",
			"primitives":[
				{
					"attributes":{
						"POSITION":0,
						"TEXCOORD_0":1,
						"NORMAL":2
					},
					"indices":3,
					"material":0
				}
			]
		}
	],
	"accessors":[
		{
			"bufferView":0,
			"componentType":5126,
			"count":624,
			"max":[
				0.0744907334446907,
				0.08042602986097336,
				0.07449095696210861
			],
			"min":[
				-0.07449156790971756,
				-0.06806300580501556,
				-0.07449134439229965
			],
			"type":"VEC3"
		},
		{
			"bufferView":1,
			"componentType":5126,
			"count":624,
			"type":"VEC2"
		},
		{
			"bufferView":2,
			"componentType":5126,
			"count":624,
			"type":"VEC3"
		},
		{
			"bufferView":3,
			"componentType":5123,
			"count":624,
			"type":"SCALAR"
		}
	],
	"bufferViews":[
		{
			"buffer":0,
			"byteLength":7488,
			"byteOffset":0,
			"target":34962
		},
		{
			"buffer":0,
			"byteLength":4992,
			"byteOffset":7488,
			"target":34962
		},
		{
			"buffer":0,
			"byteLength":7488,
			"byteOffset":12480,
			"target":34962
		},
		{
			"buffer":0,
			"byteLength":1248,
			"byteOffset":19968,
			"target":34963
		}
	],
	"buffers":[
		{
			"byteLength":21216,
			"uri":"data:application/octet-stream;base64,"
		}
	]
}
