{
	"asset":{
		"generator":"Khronos glTF Blender I/O v3.6.6",
		"version":"2.0"
	},
	"scene":0,
	"scenes":[
		{
			"extras":{
				"main_scene":{},
				"library_scene":{}
			},
			"name":"Library",
			"nodes":[
				0,
				1
			]
		}
	],
	"nodes":[
		{
			"mesh":0,
			"name":"Steak"
		},
		{
			"extras":{
				"FoodStats":"(hydration: 1, glucose:17, fat: 17, health: 0)",
				"RigidBody":"Dynamic",
				"Collider":"Mesh",
				"Food":"",
				"FoodProperties":"(health: 8, total_health: 8, time_per_bite: 2)"
			},
			"name":"Steak_components"
		}
	],
	"materials":[
		{
			"doubleSided":true,
			"name":"DarkRed.001",
			"pbrMetallicRoughness":{
				"baseColorFactor":[
					0.13285866379737854,
					0.027866613119840622,
					0.018825862556695938,
					1
				],
				"metallicFactor":0,
				"roughnessFactor":0.5
			}
		},
		{
			"doubleSided":true,
			"name":"White.013",
			"pbrMetallicRoughness":{
				"baseColorFactor":[
					0.4575227200984955,
					0.4575227200984955,
					0.4575227200984955,
					1
				],
				"metallicFactor":0,
				"roughnessFactor":0.5
			}
		}
	],
	"meshes":[
		{
			"name":"Cube.012-0",
			"primitives":[
				{
					"attributes":{
						"POSITION":0,
						"NORMAL":1
					},
					"indices":2,
					"material":0
				},
				{
					"attributes":{
						"POSITION":3,
						"NORMAL":4
					},
					"indices":5,
					"material":1
				}
			]
		}
	],
	"accessors":[
		{
			"bufferView":0,
			"componentType":5126,
			"count":72,
			"max":[
				0.12167935073375702,
				0.019524285569787025,
				0.11446710675954819
			],
			"min":[
				-0.04241209104657173,
				-0.019524285569787025,
				-0.13634006679058075
			],
			"type":"VEC3"
		},
		{
			"bufferView":1,
			"componentType":5126,
			"count":72,
			"type":"VEC3"
		},
		{
			"bufferView":2,
			"componentType":5123,
			"count":72,
			"type":"SCALAR"
		},
		{
			"bufferView":3,
			"componentType":5126,
			"count":1164,
			"max":[
				0.13210564851760864,
				0.024243541061878204,
				0.12556959688663483
			],
			"min":[
				-0.05630907788872719,
				-0.024243541061878204,
				-0.14745765924453735
			],
			"type":"VEC3"
		},
		{
			"bufferView":4,
			"componentType":5126,
			"count":1164,
			"type":"VEC3"
		},
		{
			"bufferView":5,
			"componentType":5123,
			"count":1164,
			"type":"SCALAR"
		}
	],
	"bufferViews":[
		{
			"buffer":0,
			"byteLength":864,
			"byteOffset":0,
			"target":34962
		},
		{
			"buffer":0,
			"byteLength":864,
			"byteOffset":864,
			"target":34962
		},
		{
			"buffer":0,
			"byteLength":144,
			"byteOffset":1728,
			"target":34963
		},
		{
			"buffer":0,
			"byteLength":13968,
			"byteOffset":1872,
			"target":34962
		},
		{
			"buffer":0,
			"byteLength":13968,
			"byteOffset":15840,
			"target":34962
		},
		{
			"buffer":0,
			"byteLength":2328,
			"byteOffset":29808,
			"target":34963
		}
	],
	"buffers":[
		{
			"byteLength":32136,
			"uri":"data:application/octet-stream;base64,"
		}
	]
}
