{
	"asset":{
		"generator":"Khronos glTF Blender I/O v3.6.6",
		"version":"2.0"
	},
	"scene":0,
	"scenes":[
		{
			"extras":{
				"main_scene":{},
				"library_scene":{}
			},
			"name":"Library",
			"nodes":[
				0,
				1
			]
		}
	],
	"nodes":[
		{
			"mesh":0,
			"name":"Tomato",
			"scale":[
				0.6670088768005371,
				0.6670088768005371,
				0.6670088768005371
			]
		},
		{
			"extras":{
				"FoodStats":"(hydration: 5, glucose:12, fat: 3, health: 0)",
				"RigidBody":"Dynamic",
				"Collider":"Ball(0.05)",
				"Food":"",
				"FoodProperties":"(health: 3, total_health: 3, time_per_bite: 0.2)"
			},
			"name":"Tomato_components"
		}
	],
	"materials":[
		{
			"doubleSided":true,
			"name":"DarkRed.002",
			"pbrMetallicRoughness":{
				"baseColorFactor":[
					0.13285866379737854,
					0.027866613119840622,
					0.018825862556695938,
					1
				],
				"metallicFactor":0,
				"roughnessFactor":0.5
			}
		},
		{
			"doubleSided":true,
			"name":"DarkGreen.004",
			"pbrMetallicRoughness":{
				"baseColorFactor":[
					0.030614575371146202,
					0.060716111212968826,
					0.0277488362044096,
					1
				],
				"metallicFactor":0,
				"roughnessFactor":0.5
			}
		}
	],
	"meshes":[
		{
			"name":"Cube.040-0",
			"primitives":[
				{
					"attributes":{
						"POSITION":0,
						"TEXCOORD_0":1,
						"NORMAL":2
					},
					"indices":3,
					"material":0
				},
				{
					"attributes":{
						"POSITION":4,
						"TEXCOORD_0":5,
						"NORMAL":6
					},
					"indices":7,
					"material":1
				}
			]
		}
	],
	"accessors":[
		{
			"bufferView":0,
			"componentType":5126,
			"count":588,
			"max":[
				0.07524716109037399,
				0.07159136235713959,
				0.07524766772985458
			],
			"min":[
				-0.0752488449215889,
				-0.04484967514872551,
				-0.07524845004081726
			],
			"type":"VEC3"
		},
		{
			"bufferView":1,
			"componentType":5126,
			"count":588,
			"type":"VEC2"
		},
		{
			"bufferView":2,
			"componentType":5126,
			"count":588,
			"type":"VEC3"
		},
		{
			"bufferView":3,
			"componentType":5123,
			"count":588,
			"type":"SCALAR"
		},
		{
			"bufferView":4,
			"componentType":5126,
			"count":444,
			"max":[
				0.059470877051353455,
				0.08042602986097336,
				0.06697484105825424
			],
			"min":[
				-0.0677366629242897,
				0.03301398083567619,
				-0.06146799400448799
			],
			"type":"VEC3"
		},
		{
			"bufferView":5,
			"componentType":5126,
			"count":444,
			"type":"VEC2"
		},
		{
			"bufferView":6,
			"componentType":5126,
			"count":444,
			"type":"VEC3"
		},
		{
			"bufferView":7,
			"componentType":5123,
			"count":444,
			"type":"SCALAR"
		}
	],
	"bufferViews":[
		{
			"buffer":0,
			"byteLength":7056,
			"byteOffset":0,
			"target":34962
		},
		{
			"buffer":0,
			"byteLength":4704,
			"byteOffset":7056,
			"target":34962
		},
		{
			"buffer":0,
			"byteLength":7056,
			"byteOffset":11760,
			"target":34962
		},
		{
			"buffer":0,
			"byteLength":1176,
			"byteOffset":18816,
			"target":34963
		},
		{
			"buffer":0,
			"byteLength":5328,
			"byteOffset":19992,
			"target":34962
		},
		{
			"buffer":0,
			"byteLength":3552,
			"byteOffset":25320,
			"target":34962
		},
		{
			"buffer":0,
			"byteLength":5328,
			"byteOffset":28872,
			"target":34962
		},
		{
			"buffer":0,
			"byteLength":888,
			"byteOffset":34200,
			"target":34963
		}
	],
	"buffers":[
		{
			"byteLength":35088,
			"uri":"data:application/octet-stream;base64,"
		}
	]
}
