{
	"asset":{
		"generator":"Khronos glTF Blender I/O v3.6.6",
		"version":"2.0"
	},
	"scene":0,
	"scenes":[
		{
			"name":"Scene",
			"nodes":[
				0
			]
		}
	],
	"nodes":[
		{
			"mesh":0,
			"name":"Apple"
		}
	],
	"materials":[
		{
			"doubleSided":true,
			"name":"DarkRed",
			"pbrMetallicRoughness":{
				"baseColorFactor":[
					0.13285866379737854,
					0.027866613119840622,
					0.018825862556695938,
					1
				],
				"metallicFactor":0,
				"roughnessFactor":0.5
			}
		},
		{
			"doubleSided":true,
			"name":"DarkBrown",
			"pbrMetallicRoughness":{
				"baseColorFactor":[
					0.1574276238679886,
					0.07110017538070679,
					0.04681858792901039,
					1
				],
				"metallicFactor":0,
				"roughnessFactor":0.5
			}
		},
		{
			"doubleSided":true,
			"name":"DarkGreen",
			"pbrMetallicRoughness":{
				"baseColorFactor":[
					0.030614575371146202,
					0.060716111212968826,
					0.0277488362044096,
					1
				],
				"metallicFactor":0,
				"roughnessFactor":0.5
			}
		}
	],
	"meshes":[
		{
			"name":"Cube.020",
			"primitives":[
				{
					"attributes":{
						"POSITION":0,
						"TEXCOORD_0":1,
						"NORMAL":2
					},
					"indices":3,
					"material":0
				},
				{
					"attributes":{
						"POSITION":4,
						"TEXCOORD_0":5,
						"NORMAL":6
					},
					"indices":7,
					"material":1
				},
				{
					"attributes":{
						"POSITION":8,
						"TEXCOORD_0":9,
						"NORMAL":10
					},
					"indices":11,
					"material":2
				}
			]
		}
	],
	"accessors":[
		{
			"bufferView":0,
			"componentType":5126,
			"count":528,
			"max":[
				0.4012550711631775,
				0.24241042137145996,
				0.3993522524833679
			],
			"min":[
				-0.4011967182159424,
				-0.39419642090797424,
				-0.39935219287872314
			],
			"type":"VEC3"
		},
		{
			"bufferView":1,
			"componentType":5126,
			"count":528,
			"type":"VEC2"
		},
		{
			"bufferView":2,
			"componentType":5126,
			"count":528,
			"type":"VEC3"
		},
		{
			"bufferView":3,
			"componentType":5123,
			"count":768,
			"type":"SCALAR"
		},
		{
			"bufferView":4,
			"componentType":5126,
			"count":208,
			"max":[
				0.08648371696472168,
				0.4569905698299408,
				0.02978372573852539
			],
			"min":[
				-0.031198594719171524,
				0.18161402642726898,
				-0.03347870707511902
			],
			"type":"VEC3"
		},
		{
			"bufferView":5,
			"componentType":5126,
			"count":208,
			"type":"VEC2"
		},
		{
			"bufferView":6,
			"componentType":5126,
			"count":208,
			"type":"VEC3"
		},
		{
			"bufferView":7,
			"componentType":5123,
			"count":312,
			"type":"SCALAR"
		},
		{
			"bufferView":8,
			"componentType":5126,
			"count":126,
			"max":[
				0.011547327972948551,
				0.4575420916080475,
				0.0024892492219805717
			],
			"min":[
				-0.3035236597061157,
				0.2798425257205963,
				-0.0076153697445988655
			],
			"type":"VEC3"
		},
		{
			"bufferView":9,
			"componentType":5126,
			"count":126,
			"type":"VEC2"
		},
		{
			"bufferView":10,
			"componentType":5126,
			"count":126,
			"type":"VEC3"
		},
		{
			"bufferView":11,
			"componentType":5123,
			"count":240,
			"type":"SCALAR"
		}
	],
	"bufferViews":[
		{
			"buffer":0,
			"byteLength":6336,
			"byteOffset":0,
			"target":34962
		},
		{
			"buffer":0,
			"byteLength":4224,
			"byteOffset":6336,
			"target":34962
		},
		{
			"buffer":0,
			"byteLength":6336,
			"byteOffset":10560,
			"target":34962
		},
		{
			"buffer":0,
			"byteLength":1536,
			"byteOffset":16896,
			"target":34963
		},
		{
			"buffer":0,
			"byteLength":2496,
			"byteOffset":18432,
			"target":34962
		},
		{
			"buffer":0,
			"byteLength":1664,
			"byteOffset":20928,
			"target":34962
		},
		{
			"buffer":0,
			"byteLength":2496,
			"byteOffset":22592,
			"target":34962
		},
		{
			"buffer":0,
			"byteLength":624,
			"byteOffset":25088,
			"target":34963
		},
		{
			"buffer":0,
			"byteLength":1512,
			"byteOffset":25712,
			"target":34962
		},
		{
			"buffer":0,
			"byteLength":1008,
			"byteOffset":27224,
			"target":34962
		},
		{
			"buffer":0,
			"byteLength":1512,
			"byteOffset":28232,
			"target":34962
		},
		{
			"buffer":0,
			"byteLength":480,
			"byteOffset":29744,
			"target":34963
		}
	],
	"buffers":[
		{
			"byteLength":30224,
			"uri":"data:application/octet-stream;base64,"
		}
	]
}
