{
	"asset":{
		"generator":"Khronos glTF Blender I/O v3.6.6",
		"version":"2.0"
	},
	"scene":0,
	"scenes":[
		{
			"name":"Scene",
			"nodes":[
				0
			]
		}
	],
	"nodes":[
		{
			"mesh":0,
			"name":"Avocado"
		}
	],
	"materials":[
		{
			"doubleSided":true,
			"name":"DarkGrey",
			"pbrMetallicRoughness":{
				"baseColorFactor":[
					0.03310031071305275,
					0.03310031071305275,
					0.03310031071305275,
					1
				],
				"metallicFactor":0,
				"roughnessFactor":0.5
			}
		},
		{
			"doubleSided":true,
			"name":"PaleGreen",
			"pbrMetallicRoughness":{
				"baseColorFactor":[
					0.23109957575798035,
					0.3564002215862274,
					0.14787548780441284,
					1
				],
				"metallicFactor":0,
				"roughnessFactor":0.5
			}
		},
		{
			"doubleSided":true,
			"name":"LightBrown",
			"pbrMetallicRoughness":{
				"baseColorFactor":[
					0.29568490386009216,
					0.22582776844501495,
					0.177988201379776,
					1
				],
				"metallicFactor":0,
				"roughnessFactor":0.5
			}
		}
	],
	"meshes":[
		{
			"name":"Cube.080",
			"primitives":[
				{
					"attributes":{
						"POSITION":0,
						"NORMAL":1
					},
					"indices":2,
					"material":0
				},
				{
					"attributes":{
						"POSITION":3,
						"NORMAL":4
					},
					"indices":5,
					"material":1
				},
				{
					"attributes":{
						"POSITION":6,
						"NORMAL":7
					},
					"indices":8,
					"material":2
				}
			]
		}
	],
	"accessors":[
		{
			"bufferView":0,
			"componentType":5126,
			"count":304,
			"max":[
				0.3765714168548584,
				0.7564113140106201,
				0.3240240514278412
			],
			"min":[
				-0.3765714168548584,
				-0.3374941349029541,
				-0.044305942952632904
			],
			"type":"VEC3"
		},
		{
			"bufferView":1,
			"componentType":5126,
			"count":304,
			"type":"VEC3"
		},
		{
			"bufferView":2,
			"componentType":5123,
			"count":456,
			"type":"SCALAR"
		},
		{
			"bufferView":3,
			"componentType":5126,
			"count":48,
			"max":[
				0.31941089034080505,
				0.6887112855911255,
				0.3374941647052765
			],
			"min":[
				-0.31941089034080505,
				-0.2827138602733612,
				0.3135472536087036
			],
			"type":"VEC3"
		},
		{
			"bufferView":4,
			"componentType":5126,
			"count":48,
			"type":"VEC3"
		},
		{
			"bufferView":5,
			"componentType":5123,
			"count":72,
			"type":"SCALAR"
		},
		{
			"bufferView":6,
			"componentType":5126,
			"count":160,
			"max":[
				0.18336644768714905,
				0.3199405372142792,
				0.4954467713832855
			],
			"min":[
				-0.18336644768714905,
				-0.13442669808864594,
				0.1456749588251114
			],
			"type":"VEC3"
		},
		{
			"bufferView":7,
			"componentType":5126,
			"count":160,
			"type":"VEC3"
		},
		{
			"bufferView":8,
			"componentType":5123,
			"count":240,
			"type":"SCALAR"
		}
	],
	"bufferViews":[
		{
			"buffer":0,
			"byteLength":3648,
			"byteOffset":0,
			"target":34962
		},
		{
			"buffer":0,
			"byteLength":3648,
			"byteOffset":3648,
			"target":34962
		},
		{
			"buffer":0,
			"byteLength":912,
			"byteOffset":7296,
			"target":34963
		},
		{
			"buffer":0,
			"byteLength":576,
			"byteOffset":8208,
			"target":34962
		},
		{
			"buffer":0,
			"byteLength":576,
			"byteOffset":8784,
			"target":34962
		},
		{
			"buffer":0,
			"byteLength":144,
			"byteOffset":9360,
			"target":34963
		},
		{
			"buffer":0,
			"byteLength":1920,
			"byteOffset":9504,
			"target":34962
		},
		{
			"buffer":0,
			"byteLength":1920,
			"byteOffset":11424,
			"target":34962
		},
		{
			"buffer":0,
			"byteLength":480,
			"byteOffset":13344,
			"target":34963
		}
	],
	"buffers":[
		{
			"byteLength":13824,
			"uri":"data:application/octet-stream;base64,"
		}
	]
}
