{
	"asset":{
		"generator":"Khronos glTF Blender I/O v3.6.6",
		"version":"2.0"
	},
	"scene":0,
	"scenes":[
		{
			"name":"Scene",
			"nodes":[
				0
			]
		}
	],
	"nodes":[
		{
			"mesh":0,
			"name":"Banana"
		}
	],
	"materials":[
		{
			"doubleSided":true,
			"name":"Yellow",
			"pbrMetallicRoughness":{
				"baseColorFactor":[
					0.5277149677276611,
					0.3498196303844452,
					0.0725221335887909,
					1
				],
				"metallicFactor":0,
				"roughnessFactor":0.5
			}
		}
	],
	"meshes":[
		{
			"name":"Cube.038",
			"primitives":[
				{
					"attributes":{
						"POSITION":0,
						"NORMAL":1
					},
					"indices":2,
					"material":0
				}
			]
		}
	],
	"accessors":[
		{
			"bufferView":0,
			"componentType":5126,
			"count":696,
			"max":[
				0.468721866607666,
				0.9584647417068481,
				0.11631880700588226
			],
			"min":[
				-0.706673264503479,
				-0.445745587348938,
				-0.19316065311431885
			],
			"type":"VEC3"
		},
		{
			"bufferView":1,
			"componentType":5126,
			"count":696,
			"type":"VEC3"
		},
		{
			"bufferView":2,
			"componentType":5123,
			"count":1044,
			"type":"SCALAR"
		}
	],
	"bufferViews":[
		{
			"buffer":0,
			"byteLength":8352,
			"byteOffset":0,
			"target":34962
		},
		{
			"buffer":0,
			"byteLength":8352,
			"byteOffset":8352,
			"target":34962
		},
		{
			"buffer":0,
			"byteLength":2088,
			"byteOffset":16704,
			"target":34963
		}
	],
	"buffers":[
		{
			"byteLength":18792,
			"uri":"data:application/octet-stream;base64,"
		}
	]
}
