{
	"asset":{
		"generator":"Khronos glTF Blender I/O v3.6.6",
		"version":"2.0"
	},
	"scene":0,
	"scenes":[
		{
			"name":"Scene",
			"nodes":[
				0
			]
		}
	],
	"nodes":[
		{
			"mesh":0,
			"name":"Bread_Slice"
		}
	],
	"materials":[
		{
			"doubleSided":true,
			"name":"Brown",
			"pbrMetallicRoughness":{
				"baseColorFactor":[
					0.16263727843761444,
					0.10511866211891174,
					0.04624766856431961,
					1
				],
				"metallicFactor":0,
				"roughnessFactor":0.5
			}
		},
		{
			"doubleSided":true,
			"name":"Light",
			"pbrMetallicRoughness":{
				"baseColorFactor":[
					0.36722829937934875,
					0.2665834128856659,
					0.1561516970396042,
					1
				],
				"metallicFactor":0,
				"roughnessFactor":0.5
			}
		}
	],
	"meshes":[
		{
			"name":"Cube.033",
			"primitives":[
				{
					"attributes":{
						"POSITION":0,
						"TEXCOORD_0":1,
						"NORMAL":2
					},
					"indices":3,
					"material":0
				},
				{
					"attributes":{
						"POSITION":4,
						"TEXCOORD_0":5,
						"NORMAL":6
					},
					"indices":7,
					"material":1
				}
			]
		}
	],
	"accessors":[
		{
			"bufferView":0,
			"componentType":5126,
			"count":264,
			"max":[
				0.34595292806625366,
				0.3564585745334625,
				0.05413861572742462
			],
			"min":[
				-0.3473857641220093,
				-0.49056491255760193,
				-0.05413861572742462
			],
			"type":"VEC3"
		},
		{
			"bufferView":1,
			"componentType":5126,
			"count":264,
			"type":"VEC2"
		},
		{
			"bufferView":2,
			"componentType":5126,
			"count":264,
			"type":"VEC3"
		},
		{
			"bufferView":3,
			"componentType":5123,
			"count":528,
			"type":"SCALAR"
		},
		{
			"bufferView":4,
			"componentType":5126,
			"count":124,
			"max":[
				0.28506141901016235,
				0.3087712824344635,
				0.05413861200213432
			],
			"min":[
				-0.2864943742752075,
				-0.448651522397995,
				-0.05413861200213432
			],
			"type":"VEC3"
		},
		{
			"bufferView":5,
			"componentType":5126,
			"count":124,
			"type":"VEC2"
		},
		{
			"bufferView":6,
			"componentType":5126,
			"count":124,
			"type":"VEC3"
		},
		{
			"bufferView":7,
			"componentType":5123,
			"count":576,
			"type":"SCALAR"
		}
	],
	"bufferViews":[
		{
			"buffer":0,
			"byteLength":3168,
			"byteOffset":0,
			"target":34962
		},
		{
			"buffer":0,
			"byteLength":2112,
			"byteOffset":3168,
			"target":34962
		},
		{
			"buffer":0,
			"byteLength":3168,
			"byteOffset":5280,
			"target":34962
		},
		{
			"buffer":0,
			"byteLength":1056,
			"byteOffset":8448,
			"target":34963
		},
		{
			"buffer":0,
			"byteLength":1488,
			"byteOffset":9504,
			"target":34962
		},
		{
			"buffer":0,
			"byteLength":992,
			"byteOffset":10992,
			"target":34962
		},
		{
			"buffer":0,
			"byteLength":1488,
			"byteOffset":11984,
			"target":34962
		},
		{
			"buffer":0,
			"byteLength":1152,
			"byteOffset":13472,
			"target":34963
		}
	],
	"buffers":[
		{
			"byteLength":14624,
			"uri":"data:application/octet-stream;base64,"
		}
	]
}
