{
	"asset":{
		"generator":"Khronos glTF Blender I/O v3.6.6",
		"version":"2.0"
	},
	"scene":0,
	"scenes":[
		{
			"name":"Scene",
			"nodes":[
				0
			]
		}
	],
	"nodes":[
		{
			"mesh":0,
			"name":"Broccoli"
		}
	],
	"materials":[
		{
			"doubleSided":true,
			"name":"LightGreen",
			"pbrMetallicRoughness":{
				"baseColorFactor":[
					0.13563336431980133,
					0.3564002215862274,
					0.06847818195819855,
					1
				],
				"metallicFactor":0,
				"roughnessFactor":0.5
			}
		},
		{
			"doubleSided":true,
			"name":"DarkGreen",
			"pbrMetallicRoughness":{
				"baseColorFactor":[
					0.030614575371146202,
					0.060716111212968826,
					0.0277488362044096,
					1
				],
				"metallicFactor":0,
				"roughnessFactor":0.5
			}
		}
	],
	"meshes":[
		{
			"name":"Cube.010",
			"primitives":[
				{
					"attributes":{
						"POSITION":0,
						"NORMAL":1
					},
					"indices":2,
					"material":0
				},
				{
					"attributes":{
						"POSITION":3,
						"NORMAL":4
					},
					"indices":5,
					"material":1
				}
			]
		}
	],
	"accessors":[
		{
			"bufferView":0,
			"componentType":5126,
			"count":246,
			"max":[
				0.19043780863285065,
				0.6349877715110779,
				0.20237840712070465
			],
			"min":[
				-0.22439083456993103,
				-0.0032932418398559093,
				-0.2327314168214798
			],
			"type":"VEC3"
		},
		{
			"bufferView":1,
			"componentType":5126,
			"count":246,
			"type":"VEC3"
		},
		{
			"bufferView":2,
			"componentType":5123,
			"count":378,
			"type":"SCALAR"
		},
		{
			"bufferView":3,
			"componentType":5126,
			"count":432,
			"max":[
				0.3726341128349304,
				0.8963361382484436,
				0.3249566853046417
			],
			"min":[
				-0.37882840633392334,
				0.39862242341041565,
				-0.31944891810417175
			],
			"type":"VEC3"
		},
		{
			"bufferView":4,
			"componentType":5126,
			"count":432,
			"type":"VEC3"
		},
		{
			"bufferView":5,
			"componentType":5123,
			"count":432,
			"type":"SCALAR"
		}
	],
	"bufferViews":[
		{
			"buffer":0,
			"byteLength":2952,
			"byteOffset":0,
			"target":34962
		},
		{
			"buffer":0,
			"byteLength":2952,
			"byteOffset":2952,
			"target":34962
		},
		{
			"buffer":0,
			"byteLength":756,
			"byteOffset":5904,
			"target":34963
		},
		{
			"buffer":0,
			"byteLength":5184,
			"byteOffset":6660,
			"target":34962
		},
		{
			"buffer":0,
			"byteLength":5184,
			"byteOffset":11844,
			"target":34962
		},
		{
			"buffer":0,
			"byteLength":864,
			"byteOffset":17028,
			"target":34963
		}
	],
	"buffers":[
		{
			"byteLength":17892,
			"uri":"data:application/octet-stream;base64,"
		}
	]
}
