{
	"asset":{
		"generator":"Khronos glTF Blender I/O v3.6.6",
		"version":"2.0"
	},
	"scene":0,
	"scenes":[
		{
			"name":"Scene",
			"nodes":[
				0
			]
		}
	],
	"nodes":[
		{
			"mesh":0,
			"name":"Carrot"
		}
	],
	"materials":[
		{
			"doubleSided":true,
			"name":"Orange",
			"pbrMetallicRoughness":{
				"baseColorFactor":[
					0.4575255215167999,
					0.15784107148647308,
					0.046494260430336,
					1
				],
				"metallicFactor":0,
				"roughnessFactor":0.5
			}
		},
		{
			"doubleSided":true,
			"name":"DarkGreen",
			"pbrMetallicRoughness":{
				"baseColorFactor":[
					0.030614575371146202,
					0.060716111212968826,
					0.0277488362044096,
					1
				],
				"metallicFactor":0,
				"roughnessFactor":0.5
			}
		}
	],
	"meshes":[
		{
			"name":"Cube.047",
			"primitives":[
				{
					"attributes":{
						"POSITION":0,
						"NORMAL":1
					},
					"indices":2,
					"material":0
				},
				{
					"attributes":{
						"POSITION":3,
						"NORMAL":4
					},
					"indices":5,
					"material":1
				}
			]
		}
	],
	"accessors":[
		{
			"bufferView":0,
			"componentType":5126,
			"count":160,
			"max":[
				0.16897235810756683,
				0.3025776147842407,
				0.16897235810756683
			],
			"min":[
				-0.16897235810756683,
				-0.9865278005599976,
				-0.16897235810756683
			],
			"type":"VEC3"
		},
		{
			"bufferView":1,
			"componentType":5126,
			"count":160,
			"type":"VEC3"
		},
		{
			"bufferView":2,
			"componentType":5123,
			"count":240,
			"type":"SCALAR"
		},
		{
			"bufferView":3,
			"componentType":5126,
			"count":1476,
			"max":[
				0.47786661982536316,
				1.7920176982879639,
				0.4751391112804413
			],
			"min":[
				-0.4688602685928345,
				0.2296576350927353,
				-0.45648249983787537
			],
			"type":"VEC3"
		},
		{
			"bufferView":4,
			"componentType":5126,
			"count":1476,
			"type":"VEC3"
		},
		{
			"bufferView":5,
			"componentType":5123,
			"count":2352,
			"type":"SCALAR"
		}
	],
	"bufferViews":[
		{
			"buffer":0,
			"byteLength":1920,
			"byteOffset":0,
			"target":34962
		},
		{
			"buffer":0,
			"byteLength":1920,
			"byteOffset":1920,
			"target":34962
		},
		{
			"buffer":0,
			"byteLength":480,
			"byteOffset":3840,
			"target":34963
		},
		{
			"buffer":0,
			"byteLength":17712,
			"byteOffset":4320,
			"target":34962
		},
		{
			"buffer":0,
			"byteLength":17712,
			"byteOffset":22032,
			"target":34962
		},
		{
			"buffer":0,
			"byteLength":4704,
			"byteOffset":39744,
			"target":34963
		}
	],
	"buffers":[
		{
			"byteLength":44448,
			"uri":"data:application/octet-stream;base64,"
		}
	]
}
