{
	"asset":{
		"generator":"Khronos glTF Blender I/O v3.6.6",
		"version":"2.0"
	},
	"scene":0,
	"scenes":[
		{
			"name":"Scene",
			"nodes":[
				0
			]
		}
	],
	"nodes":[
		{
			"mesh":0,
			"name":"ChickenLeg"
		}
	],
	"materials":[
		{
			"doubleSided":true,
			"name":"DarkBrown",
			"pbrMetallicRoughness":{
				"baseColorFactor":[
					0.1574276238679886,
					0.07110017538070679,
					0.04681858792901039,
					1
				],
				"metallicFactor":0,
				"roughnessFactor":0.5
			}
		},
		{
			"doubleSided":true,
			"name":"Beige",
			"pbrMetallicRoughness":{
				"baseColorFactor":[
					0.3423786163330078,
					0.29983246326446533,
					0.21136511862277985,
					1
				],
				"metallicFactor":0,
				"roughnessFactor":0.5
			}
		}
	],
	"meshes":[
		{
			"name":"Cube.048",
			"primitives":[
				{
					"attributes":{
						"POSITION":0,
						"NORMAL":1
					},
					"indices":2,
					"material":0
				},
				{
					"attributes":{
						"POSITION":3,
						"NORMAL":4
					},
					"indices":5,
					"material":1
				}
			]
		}
	],
	"accessors":[
		{
			"bufferView":0,
			"componentType":5126,
			"count":316,
			"max":[
				0.6104565858840942,
				0.28709912300109863,
				0.30597367882728577
			],
			"min":[
				-0.34941619634628296,
				-0.2515210807323456,
				-0.3059736490249634
			],
			"type":"VEC3"
		},
		{
			"bufferView":1,
			"componentType":5126,
			"count":316,
			"type":"VEC3"
		},
		{
			"bufferView":2,
			"componentType":5123,
			"count":480,
			"type":"SCALAR"
		},
		{
			"bufferView":3,
			"componentType":5126,
			"count":252,
			"max":[
				-0.3313648998737335,
				0.1736336052417755,
				0.12169808149337769
			],
			"min":[
				-0.7885065078735352,
				-0.29441407322883606,
				-0.12169810384511948
			],
			"type":"VEC3"
		},
		{
			"bufferView":4,
			"componentType":5126,
			"count":252,
			"type":"VEC3"
		},
		{
			"bufferView":5,
			"componentType":5123,
			"count":384,
			"type":"SCALAR"
		}
	],
	"bufferViews":[
		{
			"buffer":0,
			"byteLength":3792,
			"byteOffset":0,
			"target":34962
		},
		{
			"buffer":0,
			"byteLength":3792,
			"byteOffset":3792,
			"target":34962
		},
		{
			"buffer":0,
			"byteLength":960,
			"byteOffset":7584,
			"target":34963
		},
		{
			"buffer":0,
			"byteLength":3024,
			"byteOffset":8544,
			"target":34962
		},
		{
			"buffer":0,
			"byteLength":3024,
			"byteOffset":11568,
			"target":34962
		},
		{
			"buffer":0,
			"byteLength":768,
			"byteOffset":14592,
			"target":34963
		}
	],
	"buffers":[
		{
			"byteLength":15360,
			"uri":"data:application/octet-stream;base64,"
		}
	]
}
