{
	"asset":{
		"generator":"Khronos glTF Blender I/O v3.6.6",
		"version":"2.0"
	},
	"scene":0,
	"scenes":[
		{
			"name":"Scene",
			"nodes":[
				0
			]
		}
	],
	"nodes":[
		{
			"mesh":0,
			"name":"Croissant"
		}
	],
	"materials":[
		{
			"doubleSided":true,
			"name":"LightYellow",
			"pbrMetallicRoughness":{
				"baseColorFactor":[
					0.4575255215167999,
					0.32352927327156067,
					0.1709245890378952,
					1
				],
				"metallicFactor":0,
				"roughnessFactor":0.5
			}
		}
	],
	"meshes":[
		{
			"name":"Cube.086",
			"primitives":[
				{
					"attributes":{
						"POSITION":0,
						"NORMAL":1
					},
					"indices":2,
					"material":0
				}
			]
		}
	],
	"accessors":[
		{
			"bufferView":0,
			"componentType":5126,
			"count":240,
			"max":[
				0.6522367596626282,
				0.27489233016967773,
				0.45559775829315186
			],
			"min":[
				-0.6522367596626282,
				-0.27489233016967773,
				-0.27489233016967773
			],
			"type":"VEC3"
		},
		{
			"bufferView":1,
			"componentType":5126,
			"count":240,
			"type":"VEC3"
		},
		{
			"bufferView":2,
			"componentType":5123,
			"count":396,
			"type":"SCALAR"
		}
	],
	"bufferViews":[
		{
			"buffer":0,
			"byteLength":2880,
			"byteOffset":0,
			"target":34962
		},
		{
			"buffer":0,
			"byteLength":2880,
			"byteOffset":2880,
			"target":34962
		},
		{
			"buffer":0,
			"byteLength":792,
			"byteOffset":5760,
			"target":34963
		}
	],
	"buffers":[
		{
			"byteLength":6552,
			"uri":"data:application/octet-stream;base64,"
		}
	]
}
