{
	"asset":{
		"generator":"Khronos glTF Blender I/O v3.6.6",
		"version":"2.0"
	},
	"scene":0,
	"scenes":[
		{
			"name":"Scene",
			"nodes":[
				0
			]
		}
	],
	"nodes":[
		{
			"mesh":0,
			"name":"Eggplant"
		}
	],
	"materials":[
		{
			"doubleSided":true,
			"name":"Purple",
			"pbrMetallicRoughness":{
				"baseColorFactor":[
					0.05696569383144379,
					0.044550132006406784,
					0.20189394056797028,
					1
				],
				"metallicFactor":0,
				"roughnessFactor":0.5
			}
		},
		{
			"doubleSided":true,
			"name":"DarkGreen",
			"pbrMetallicRoughness":{
				"baseColorFactor":[
					0.030614575371146202,
					0.060716111212968826,
					0.0277488362044096,
					1
				],
				"metallicFactor":0,
				"roughnessFactor":0.5
			}
		}
	],
	"meshes":[
		{
			"name":"Cube.036",
			"primitives":[
				{
					"attributes":{
						"POSITION":0,
						"NORMAL":1
					},
					"indices":2,
					"material":0
				},
				{
					"attributes":{
						"POSITION":3,
						"NORMAL":4
					},
					"indices":5,
					"material":1
				}
			]
		}
	],
	"accessors":[
		{
			"bufferView":0,
			"componentType":5126,
			"count":288,
			"max":[
				0.37377119064331055,
				0.9698253870010376,
				0.35900387167930603
			],
			"min":[
				-0.5721544623374939,
				-0.7225289344787598,
				-0.35900381207466125
			],
			"type":"VEC3"
		},
		{
			"bufferView":1,
			"componentType":5126,
			"count":288,
			"type":"VEC3"
		},
		{
			"bufferView":2,
			"componentType":5123,
			"count":432,
			"type":"SCALAR"
		},
		{
			"bufferView":3,
			"componentType":5126,
			"count":448,
			"max":[
				0.3900824189186096,
				1.0294504165649414,
				0.26558879017829895
			],
			"min":[
				-0.13527509570121765,
				0.5195611119270325,
				-0.2626294791698456
			],
			"type":"VEC3"
		},
		{
			"bufferView":4,
			"componentType":5126,
			"count":448,
			"type":"VEC3"
		},
		{
			"bufferView":5,
			"componentType":5123,
			"count":672,
			"type":"SCALAR"
		}
	],
	"bufferViews":[
		{
			"buffer":0,
			"byteLength":3456,
			"byteOffset":0,
			"target":34962
		},
		{
			"buffer":0,
			"byteLength":3456,
			"byteOffset":3456,
			"target":34962
		},
		{
			"buffer":0,
			"byteLength":864,
			"byteOffset":6912,
			"target":34963
		},
		{
			"buffer":0,
			"byteLength":5376,
			"byteOffset":7776,
			"target":34962
		},
		{
			"buffer":0,
			"byteLength":5376,
			"byteOffset":13152,
			"target":34962
		},
		{
			"buffer":0,
			"byteLength":1344,
			"byteOffset":18528,
			"target":34963
		}
	],
	"buffers":[
		{
			"byteLength":19872,
			"uri":"data:application/octet-stream;base64,"
		}
	]
}
