{
	"asset":{
		"generator":"Khronos glTF Blender I/O v3.6.6",
		"version":"2.0"
	},
	"scene":0,
	"scenes":[
		{
			"name":"Scene",
			"nodes":[
				0
			]
		}
	],
	"nodes":[
		{
			"mesh":0,
			"name":"Hotdog"
		}
	],
	"materials":[
		{
			"doubleSided":true,
			"name":"LightYellow",
			"pbrMetallicRoughness":{
				"baseColorFactor":[
					0.4575255215167999,
					0.32352927327156067,
					0.1709245890378952,
					1
				],
				"metallicFactor":0,
				"roughnessFactor":0.5
			}
		},
		{
			"doubleSided":true,
			"name":"Cheese",
			"pbrMetallicRoughness":{
				"baseColorFactor":[
					0.5277149677276611,
					0.5179892182350159,
					0.05597277730703354,
					1
				],
				"metallicFactor":0,
				"roughnessFactor":0.5
			}
		},
		{
			"doubleSided":true,
			"name":"Red",
			"pbrMetallicRoughness":{
				"baseColorFactor":[
					0.4575255215167999,
					0.08468689769506454,
					0.05452617257833481,
					1
				],
				"metallicFactor":0,
				"roughnessFactor":0.5
			}
		},
		{
			"doubleSided":true,
			"name":"Hotdog",
			"pbrMetallicRoughness":{
				"baseColorFactor":[
					0.5173258185386658,
					0.3063502311706543,
					0.2544003129005432,
					1
				],
				"metallicFactor":0,
				"roughnessFactor":0.5
			}
		}
	],
	"meshes":[
		{
			"name":"Cube.004",
			"primitives":[
				{
					"attributes":{
						"POSITION":0,
						"NORMAL":1
					},
					"indices":2,
					"material":0
				},
				{
					"attributes":{
						"POSITION":3,
						"NORMAL":4
					},
					"indices":5,
					"material":1
				},
				{
					"attributes":{
						"POSITION":6,
						"NORMAL":7
					},
					"indices":8,
					"material":2
				},
				{
					"attributes":{
						"POSITION":9,
						"NORMAL":10
					},
					"indices":11,
					"material":3
				}
			]
		}
	],
	"accessors":[
		{
			"bufferView":0,
			"componentType":5126,
			"count":976,
			"max":[
				0.3926464319229126,
				0.10501281917095184,
				0.8338267803192139
			],
			"min":[
				-0.3926464319229126,
				-0.30435770750045776,
				-0.8096108436584473
			],
			"type":"VEC3"
		},
		{
			"bufferView":1,
			"componentType":5126,
			"count":976,
			"type":"VEC3"
		},
		{
			"bufferView":2,
			"componentType":5123,
			"count":1464,
			"type":"SCALAR"
		},
		{
			"bufferView":3,
			"componentType":5126,
			"count":416,
			"max":[
				0.07904601842164993,
				0.08054960519075394,
				0.6626287698745728
			],
			"min":[
				-0.08374536037445068,
				-0.005046929698437452,
				-0.6180176138877869
			],
			"type":"VEC3"
		},
		{
			"bufferView":4,
			"componentType":5126,
			"count":416,
			"type":"VEC3"
		},
		{
			"bufferView":5,
			"componentType":5123,
			"count":624,
			"type":"SCALAR"
		},
		{
			"bufferView":6,
			"componentType":5126,
			"count":304,
			"max":[
				0.0684579536318779,
				0.09786058217287064,
				0.6146364808082581
			],
			"min":[
				-0.06362646073102951,
				0.0018285587430000305,
				-0.5216721296310425
			],
			"type":"VEC3"
		},
		{
			"bufferView":7,
			"componentType":5126,
			"count":304,
			"type":"VEC3"
		},
		{
			"bufferView":8,
			"componentType":5123,
			"count":456,
			"type":"SCALAR"
		},
		{
			"bufferView":9,
			"componentType":5126,
			"count":288,
			"max":[
				0.11978516727685928,
				0.05767045542597771,
				0.8280671238899231
			],
			"min":[
				-0.11978516727685928,
				-0.18365275859832764,
				-0.8280672430992126
			],
			"type":"VEC3"
		},
		{
			"bufferView":10,
			"componentType":5126,
			"count":288,
			"type":"VEC3"
		},
		{
			"bufferView":11,
			"componentType":5123,
			"count":420,
			"type":"SCALAR"
		}
	],
	"bufferViews":[
		{
			"buffer":0,
			"byteLength":11712,
			"byteOffset":0,
			"target":34962
		},
		{
			"buffer":0,
			"byteLength":11712,
			"byteOffset":11712,
			"target":34962
		},
		{
			"buffer":0,
			"byteLength":2928,
			"byteOffset":23424,
			"target":34963
		},
		{
			"buffer":0,
			"byteLength":4992,
			"byteOffset":26352,
			"target":34962
		},
		{
			"buffer":0,
			"byteLength":4992,
			"byteOffset":31344,
			"target":34962
		},
		{
			"buffer":0,
			"byteLength":1248,
			"byteOffset":36336,
			"target":34963
		},
		{
			"buffer":0,
			"byteLength":3648,
			"byteOffset":37584,
			"target":34962
		},
		{
			"buffer":0,
			"byteLength":3648,
			"byteOffset":41232,
			"target":34962
		},
		{
			"buffer":0,
			"byteLength":912,
			"byteOffset":44880,
			"target":34963
		},
		{
			"buffer":0,
			"byteLength":3456,
			"byteOffset":45792,
			"target":34962
		},
		{
			"buffer":0,
			"byteLength":3456,
			"byteOffset":49248,
			"target":34962
		},
		{
			"buffer":0,
			"byteLength":840,
			"byteOffset":52704,
			"target":34963
		}
	],
	"buffers":[
		{
			"byteLength":53544,
			"uri":"data:application/octet-stream;base64,"
		}
	]
}
