{
	"asset":{
		"generator":"Khronos glTF Blender I/O v3.6.6",
		"version":"2.0"
	},
	"scene":0,
	"scenes":[
		{
			"name":"Scene",
			"nodes":[
				0
			]
		}
	],
	"nodes":[
		{
			"mesh":0,
			"name":"Orange"
		}
	],
	"materials":[
		{
			"doubleSided":true,
			"name":"Orange",
			"pbrMetallicRoughness":{
				"baseColorFactor":[
					0.4575255215167999,
					0.15784107148647308,
					0.046494260430336,
					1
				],
				"metallicFactor":0,
				"roughnessFactor":0.5
			}
		}
	],
	"meshes":[
		{
			"name":"Cube.021",
			"primitives":[
				{
					"attributes":{
						"POSITION":0,
						"TEXCOORD_0":1,
						"NORMAL":2
					},
					"indices":3,
					"material":0
				}
			]
		}
	],
	"accessors":[
		{
			"bufferView":0,
			"componentType":5126,
			"count":416,
			"max":[
				0.3724536597728729,
				0.402130126953125,
				0.37245476245880127
			],
			"min":[
				-0.3724578320980072,
				-0.3403150141239166,
				-0.37245669960975647
			],
			"type":"VEC3"
		},
		{
			"bufferView":1,
			"componentType":5126,
			"count":416,
			"type":"VEC2"
		},
		{
			"bufferView":2,
			"componentType":5126,
			"count":416,
			"type":"VEC3"
		},
		{
			"bufferView":3,
			"componentType":5123,
			"count":624,
			"type":"SCALAR"
		}
	],
	"bufferViews":[
		{
			"buffer":0,
			"byteLength":4992,
			"byteOffset":0,
			"target":34962
		},
		{
			"buffer":0,
			"byteLength":3328,
			"byteOffset":4992,
			"target":34962
		},
		{
			"buffer":0,
			"byteLength":4992,
			"byteOffset":8320,
			"target":34962
		},
		{
			"buffer":0,
			"byteLength":1248,
			"byteOffset":13312,
			"target":34963
		}
	],
	"buffers":[
		{
			"byteLength":14560,
			"uri":"data:application/octet-stream;base64,"
		}
	]
}
