{
	"asset":{
		"generator":"Khronos glTF Blender I/O v3.6.6",
		"version":"2.0"
	},
	"scene":0,
	"scenes":[
		{
			"name":"Scene",
			"nodes":[
				0
			]
		}
	],
	"nodes":[
		{
			"mesh":0,
			"name":"Steak"
		}
	],
	"materials":[
		{
			"doubleSided":true,
			"name":"DarkRed",
			"pbrMetallicRoughness":{
				"baseColorFactor":[
					0.13285866379737854,
					0.027866613119840622,
					0.018825862556695938,
					1
				],
				"metallicFactor":0,
				"roughnessFactor":0.5
			}
		},
		{
			"doubleSided":true,
			"name":"White",
			"pbrMetallicRoughness":{
				"baseColorFactor":[
					0.4575227200984955,
					0.4575227200984955,
					0.4575227200984955,
					1
				],
				"metallicFactor":0,
				"roughnessFactor":0.5
			}
		}
	],
	"meshes":[
		{
			"name":"Cube.012",
			"primitives":[
				{
					"attributes":{
						"POSITION":0,
						"NORMAL":1
					},
					"indices":2,
					"material":0
				},
				{
					"attributes":{
						"POSITION":3,
						"NORMAL":4
					},
					"indices":5,
					"material":1
				}
			]
		}
	],
	"accessors":[
		{
			"bufferView":0,
			"componentType":5126,
			"count":36,
			"max":[
				0.8524102568626404,
				0.13677506148815155,
				0.801885724067688
			],
			"min":[
				-0.2971128821372986,
				-0.13677506148815155,
				-0.9551141858100891
			],
			"type":"VEC3"
		},
		{
			"bufferView":1,
			"componentType":5126,
			"count":36,
			"type":"VEC3"
		},
		{
			"bufferView":2,
			"componentType":5123,
			"count":72,
			"type":"SCALAR"
		},
		{
			"bufferView":3,
			"componentType":5126,
			"count":766,
			"max":[
				0.9254504442214966,
				0.16983525454998016,
				0.8796629309654236
			],
			"min":[
				-0.3944665789604187,
				-0.16983525454998016,
				-1.0329971313476562
			],
			"type":"VEC3"
		},
		{
			"bufferView":4,
			"componentType":5126,
			"count":766,
			"type":"VEC3"
		},
		{
			"bufferView":5,
			"componentType":5123,
			"count":1164,
			"type":"SCALAR"
		}
	],
	"bufferViews":[
		{
			"buffer":0,
			"byteLength":432,
			"byteOffset":0,
			"target":34962
		},
		{
			"buffer":0,
			"byteLength":432,
			"byteOffset":432,
			"target":34962
		},
		{
			"buffer":0,
			"byteLength":144,
			"byteOffset":864,
			"target":34963
		},
		{
			"buffer":0,
			"byteLength":9192,
			"byteOffset":1008,
			"target":34962
		},
		{
			"buffer":0,
			"byteLength":9192,
			"byteOffset":10200,
			"target":34962
		},
		{
			"buffer":0,
			"byteLength":2328,
			"byteOffset":19392,
			"target":34963
		}
	],
	"buffers":[
		{
			"byteLength":21720,
			"uri":"data:application/octet-stream;base64,"
		}
	]
}
